<svg xmlns="http://www.w3.org/2000/svg" width="326.876" height="43.766" viewBox="0 0 326.876 43.766">
    <g>
        <path fill="#fa0c1b" stroke="rgba(0,0,0,0)" stroke-miterlimit="10" d="M1.864 3.1l1.747-.124.76-.033 3.611-.154c3.249-.138 2.437-.107 5.689-.206l10.754-.326-.018-.025L39.2 1.951l.033-.013c.1-.026.014-.022.614-.034L52.4 1.621c9.536-.214 7.152-.161 16.689-.36 9.076-.191 6.807-.147 15.885-.292l59.25-.942C146.189-.005 145.7 0 147.666 0l36.946.1c2.734.007 2.05 0 4.784.03l6.833.072 1.125.013h.479l-.005.007 10.262.116-.008.015 45.333.747c.927.014.7.009 1.622.04 2.405.078 1.8.057 4.209.142.745.027.557.02 1.3.056l24.3 1.184.143.022.081.007a3.5 3.5 0 0 1-.515.022l-19.568-.343c-10.975-.192-8.232-.151-19.211-.29l-15.545-.193c-2.623-.033-1.967-.027-4.591-.04-3.714-.021-2.784-.016-6.5-.03l-11.778-.038.008-.018h-10.16v.008l-15.115-.021c-6.757-.01-5.068-.008-11.828-.016l-16.29-.018c-2.7 0-2.021-.007-4.722.021l-16.228.163c-2.182.022-1.638.013-3.818.056l-6.795.127c-3.609.068-2.708.048-6.317.146l-23.774.646c-7.369.2-5.527.144-12.892.4l-22.821.809-1.11.045c-2.764.111-2.073.082-4.839.194l-2.761.112c-9.155.369-6.865.275-16.019.656a.077.077 0 0 1-.023-.005l-.014.005-5.337.236L1.643 6.364 0 6.444zm283.213-.55l-.026.03zm0 0z" transform="translate(-797.124 -1464) translate(798 1500.778)"/>
        <text fill="#373737" font-family="Ubuntu-Bold, Ubuntu" font-size="30px" font-weight="700" transform="translate(-797.124 -1464) translate(798 1492)">
            <tspan x="0" y="0">Recommended For You</tspan>
        </text>
    </g>
</svg>
