<svg xmlns="http://www.w3.org/2000/svg" width="118.458" height="32.82" viewBox="0 0 118.458 32.82"><defs><style>.a{fill:#ff5a00;}.b{fill:#29007c;}</style></defs><g transform="translate(-10 -45.67)"><path class="a" d="M166.6,82.922a3.077,3.077,0,1,0-3.077,3.156A3.021,3.021,0,0,0,166.6,82.922Zm-3.885.162v2.065h-.667V80.6h1.658c.971,0,1.417.424,1.417,1.251a.946.946,0,0,1-.788.971v.019c.385.061.526.4.606,1.034a4.2,4.2,0,0,0,.286,1.279h-.789a14.464,14.464,0,0,1-.306-1.541.666.666,0,0,0-.765-.526h-.648v0Zm.827-.589c.648,0,.833-.345.833-.649,0-.36-.185-.644-.833-.644h-.827V82.5h.827Zm-3.828.426a3.808,3.808,0,1,1,3.806,3.765A3.732,3.732,0,0,1,159.717,82.922Z" transform="translate(-38.875 -8.694)"/><g transform="translate(72.188 45.67)"><path class="a" d="M129.462,77.337l-4.388-4.921-4.35,4.921h-9.152l8.945-10.049-8.945-10.052h9.438l4.432,4.883,4.265-4.883h9.108l-8.9,10.01,9.024,10.092ZM94,77.337V45.67h17.574v7.058h-10.13v4.506h10.13v6.792h-10.13v6.234h10.13v7.076Z" transform="translate(-93.998 -45.67)"/></g><path class="b" d="M64.771,45.67V58.63h-.082a7.513,7.513,0,0,0-6.072-2.544,10.247,10.247,0,0,0-9.836,7.7C47.311,58.955,43.52,56,37.9,56c-4.566,0-8.17,2.049-10.052,5.388V57.234H18.411V52.729h10.3V45.671H10V77.337h8.411V64.027h8.384a12.647,12.647,0,0,0-.384,3.131c0,6.6,5.045,11.242,11.487,11.242,5.415,0,8.986-2.545,10.873-7.177H41.562c-.974,1.394-1.715,1.806-3.664,1.806a4.331,4.331,0,0,1-4.21-4.307H48.367C49,73.967,53.09,78.49,58.7,78.49a7.182,7.182,0,0,0,5.989-3.2h.081v2.052h7.416V45.671H64.771ZM33.923,64.122A4.061,4.061,0,0,1,37.9,60.795a3.861,3.861,0,0,1,4.013,3.327Zm26.347,8.4c-2.733,0-4.431-2.546-4.431-5.205,0-2.843,1.478-5.574,4.431-5.574,3.064,0,4.285,2.733,4.285,5.574C64.555,70.006,63.263,72.518,60.27,72.518Z"/></g></svg>