<svg xmlns="http://www.w3.org/2000/svg" width="42.661" height="52.307" viewBox="0 0 42.661 52.307"><defs><style>.a{fill:#341b14;}.b{fill:#ffb406;}</style></defs><g transform="translate(0 0.008)"><path class="a" d="M21.3,50.291c.433-.217,11.694-5.089,15.267-8.012a15.664,15.664,0,0,0,5.63-12.56V5.356l-.325-.108C32.883.376,21.73.7,21.189.7,20.756.7,9.6.376.617,5.248L.4,5.356V29.827a15.664,15.664,0,0,0,5.63,12.56c3.573,2.923,14.834,7.8,15.267,7.9" transform="translate(0.033 0.058)"/><path class="b" d="M21.33,50.891S9.42,45.693,5.739,42.77A15.98,15.98,0,0,1,0,29.993V4.657C9.42-.432,21.33,0,21.33,0s11.91-.433,21.33,4.656V29.885a15.98,15.98,0,0,1-5.739,12.777c-3.681,3.032-15.592,8.229-15.592,8.229m-19.6-20.9A13.968,13.968,0,0,0,6.821,41.362c3.032,2.49,12.019,6.5,14.509,7.579,2.49-1.083,11.586-5.2,14.509-7.579a14.115,14.115,0,0,0,5.089-11.369V5.09c-12.56-1.191-27.5-.541-39.2,10.286V29.993Z" transform="translate(0 0)"/><path class="b" d="M33.076,25.179c1.624.974,2.274,1.624,2.382,2.815a2,2,0,0,1-2.274,2.057,5.855,5.855,0,0,1-3.573-1.516V32a8.691,8.691,0,0,0,4.115,1.191c3.681,0,5.414-2.6,5.414-4.981.108-2.166-.541-3.9-3.681-5.739-1.408-.866-2.49-1.408-2.49-2.707a1.964,1.964,0,0,1,2.166-1.841A5.114,5.114,0,0,1,38.49,19.44V16.192A5.976,5.976,0,0,0,34.375,15a5.033,5.033,0,0,0-5.089,4.872c.108,2.057.758,3.573,3.79,5.306M20.3,32.975a5.561,5.561,0,0,0,1.732.217c4.223,0,6.6-3.79,6.6-9.2,0-5.522-2.49-8.879-6.93-8.879a9.352,9.352,0,0,0-5.089,1.3V40.879H20.3Zm0-14.726a4.569,4.569,0,0,1,1.3-.325c2.166,0,3.032,1.732,3.032,5.955,0,4.115-1.083,6.063-3.248,6.063a2.9,2.9,0,0,1-1.191-.217V18.249ZM8.93,33.191a9.885,9.885,0,0,0,5.63-1.516V15.326h-3.79V29.51a2.747,2.747,0,0,1-1.732.433c-1.732,0-1.949-1.624-1.949-2.6V15.326H3.3v11.8c0,4.006,1.949,6.063,5.63,6.063M34.159,47.809V50.3h.433v-.974H34.7l.65.974h.541s-.65-.974-.758-1.083a.686.686,0,0,0,.541-.65.769.769,0,0,0-.866-.758h-.65Zm.65.325c.325,0,.433.217.433.325,0,.217-.108.433-.541.433h-.108v-.758h.217Z" transform="translate(0.273 1.241)"/><path class="b" d="M34.281,46.557a1.624,1.624,0,1,1-1.624-1.624,1.6,1.6,0,0,1,1.624,1.624M32.657,44.5a2.057,2.057,0,1,0,2.057,2.057A2.13,2.13,0,0,0,32.657,44.5" transform="translate(2.533 3.684)"/></g></svg>