<svg xmlns="http://www.w3.org/2000/svg" width="209.796" height="40" viewBox="0 0 209.796 40">
  <defs>
    <style>
      .cls-1 {
        fill: #fa0c1b;
        stroke: rgba(0,0,0,0);
        stroke-miterlimit: 10;
      }

      .cls-2, .cls-3 {
        fill: #373737;
        font-size: 30px;
        font-family: Ubuntu-Bold, Ubuntu;
        font-weight: 700;
      }

      .cls-2 {
        stroke: #fff;
        stroke-width: 3px;
      }
    </style>
  </defs>
  <g id="Group_46" data-name="Group 46" transform="translate(-797.124 -1931)">
    <path id="Union_2" data-name="Union 2" class="cls-1" d="M1.864,3.1,3.612,2.98l.76-.032,3.612-.155c3.247-.138,2.436-.107,5.689-.206l10.754-.325-.018-.026L39.2,1.951l.032-.013c.1-.026.014-.023.613-.034L52.4,1.622c9.535-.214,7.151-.162,16.69-.361,9.076-.19,6.807-.148,15.884-.293L144.223.027C146.188-.005,145.7,0,147.665,0l36.946.1c2.734.006,2.05,0,4.784.031l6.834.071,1.124.014.48,0,0,.007L208.09.338,207.4,1.621H197.211l0,.007-15.115-.021c-6.758-.01-5.07-.008-11.828-.015l-16.29-.018c-2.7,0-2.022-.007-4.721.02l-16.227.164c-2.184.022-1.638.013-3.82.056l-6.795.128c-3.609.067-2.706.047-6.315.146l-23.775.646c-7.369.2-5.526.142-12.892.4l-22.82.809c-.631.024-.474.017-1.105.042-2.765.111-2.074.082-4.839.194l-2.76.112c-9.156.369-6.866.275-16.019.656a.064.064,0,0,1-.024-.005l-.013.005-5.337.237,0,0c-14.167.673-10.637.506-24.864,1.18L0,6.444Z" transform="translate(798 1963.778)"/>
    <text id="Categories" class="cls-2" transform="translate(814 1962)"><tspan x="0" y="0">Categories</tspan></text>
    <text id="Categories-2" data-name="Categories" class="cls-3" transform="translate(814 1963)"><tspan x="0" y="0">Categories</tspan></text>
  </g>
</svg>
