<svg xmlns="http://www.w3.org/2000/svg" width="225.311" height="44" viewBox="0 0 225.311 44">
  <g id="Group_1442" data-name="Group 1442" transform="translate(-218.471 -332.165)">
    <path id="Path_89" data-name="Path 89" d="M221.656,527.289h0l.283-1.524h2.391l-1.763,4.495c-.037.1-.033.07-.033.532l.005,1.653h-2.322c0-1.19,0-.892,0-2.083a13.556,13.556,0,0,0-.485-1.309l-1.259-3.289h2.465l.478,2.428a.044.044,0,0,0,.038.023C221.488,528.214,221.458,528.347,221.656,527.289Z" transform="translate(0 -159.806)" fill-rule="evenodd"/>
    <path id="Path_90" data-name="Path 90" d="M239.133,496h0l1.079,2c-10.8.695-8.1.522-18.894,1.215l-1.248.082,1.412-3.43,1.325-.127.576-.033,2.737-.159c2.461-.141,1.847-.11,4.312-.211l8.159-.335C238.9,495.569,238.822,495.426,239.133,496Z" transform="translate(-1.321 -134.407)" fill-rule="evenodd"/>
    <path id="Path_91" data-name="Path 91" d="M255.724,535.4v0l-.056-.009a.3.3,0,0,0-.276.133,1.872,1.872,0,0,0-.085.639,8.925,8.925,0,0,0,.035,1.222c.03.265.148.368.381.333.169-.03.225-.12.257-.415a11.771,11.771,0,0,0,.016-1.361C255.963,535.529,255.921,535.445,255.724,535.4Zm.091-1.587h.005c1.379.04,2.088.541,2.342,1.655a4.821,4.821,0,0,1-.122,2.446c-.342.862-1.005,1.243-2.241,1.283a3.674,3.674,0,0,1-1.581-.263,2.007,2.007,0,0,1-1.143-1.719,4.338,4.338,0,0,1,.209-2.2C253.664,534.16,254.458,533.785,255.815,533.816Z" transform="translate(-28.523 -166.451)" fill-rule="evenodd"/>
    <path id="Path_92" data-name="Path 92" d="M288.7,536.877h0v-2.362h2.283v5.134c-1.231,0-.923,0-2.154-.005-.033-.012-.028.017-.033-.206a.05.05,0,0,0-.04-.052c-.021,0,0-.014-.176.084a2.464,2.464,0,0,1-1.6.278c-.789-.126-1.152-.59-1.15-1.477l.005-3.753h2.285c.009,1.971.007,1.479.016,3.451.038.122.15.129.457.033.042-.014.07-.023.11-.038Z" transform="translate(-55.602 -167.029)" fill-rule="evenodd"/>
    <path id="Path_93" data-name="Path 93" d="M323.039,534.079h0c.15-.01.1-.009.342-.014l-.056,1.793c-.988,0-.841-.009-1.021.035-.253.063-.316.189-.307.614l0,2.789H319.74v-5.151h1.931l.093.365a1.112,1.112,0,0,1,.3-.213A2.075,2.075,0,0,1,323.039,534.079Z" transform="translate(-83.593 -166.658)" fill-rule="evenodd"/>
    <path id="Path_94" data-name="Path 94" d="M359.991,527.849h0l.14-2.084H362.2c-.41,3.817-.309,2.864-.717,6.68h-2.606c-.293-1.538-.22-1.152-.511-2.69a.052.052,0,0,0-.059-.012c-.033.01-.017-.066-.113.536-.2,1.238-.148.929-.347,2.166h-2.6l-.84-6.68h2.14l.276,3.041c.014.024.021.026.079.019.026-.012.021,0,.031-.1.229-1.688.171-1.266.4-2.955h2.061c.264,1.737.2,1.3.461,3.039a.035.035,0,0,0,.037.024c.042-.005.042,0,.059-.255Z" transform="translate(-112.203 -159.806)" fill-rule="evenodd"/>
    <path id="Path_95" data-name="Path 95" d="M483.765,481.922h0l.363,0a7.966,7.966,0,0,0-.407,1.217l-.066.225-11.454-.021c-5.121-.01-3.842-.009-8.963-.016l-12.345-.019c-2.044,0-1.533-.007-3.578.021l-12.3.168c-1.655.023-1.241.014-2.894.058l-5.149.131c-2.735.07-2.051.049-4.786.15l-18.018.663c-5.584.206-4.188.147-9.77.414l-17.293.831c-.478.024-.36.018-.838.044-2.095.113-1.571.084-3.667.2l-2.091.115c-6.939.379-5.2.283-12.14.674-.021,0-.031-.014-.026-.028s-.072.019,1.044-.588l4.549-2.477c.077-.026.01-.023.464-.035l9.511-.29c7.227-.22,5.42-.166,12.648-.37,6.878-.2,5.158-.152,12.037-.3l44.9-.967c1.489-.033,1.117-.03,2.608-.024l28,.1c2.072.007,1.553,0,3.625.031l5.179.073Z" transform="translate(-115.457 -123.43)" fill-rule="evenodd"/>
    <path id="Path_96" data-name="Path 96" d="M407.293,527.623h0l0,3.831h-2.313c0-1.939,0-1.454-.005-3.4-.035-.117-.2-.134-.445-.045l-.113.04v3.4H402.14v-6.89h2.2v2.056a2.045,2.045,0,0,1,.532-.274,2.312,2.312,0,0,1,1.922.073A1.285,1.285,0,0,1,407.293,527.623Z" transform="translate(-151.61 -158.816)" fill-rule="evenodd"/>
    <path id="Path_97" data-name="Path 97" d="M437.661,535.394h0a.309.309,0,0,0-.183.012c-.2.058-.234.239-.232,1.114,0,.964.04,1.135.257,1.189a.294.294,0,0,0,.393-.251,9.723,9.723,0,0,0,.042-1.426C437.907,535.521,437.876,535.446,437.661,535.394Zm.117-1.585h0a2.147,2.147,0,0,1,2.416,2.3,5.659,5.659,0,0,1-.075,1.33,1.933,1.933,0,0,1-1.791,1.7,3.553,3.553,0,0,1-2.531-.424,2.211,2.211,0,0,1-.8-1.656,5.171,5.171,0,0,1,.063-1.526,1.952,1.952,0,0,1,1.733-1.662A4.667,4.667,0,0,1,437.778,533.809Z" transform="translate(-178.703 -166.444)" fill-rule="evenodd"/>
    <path id="Path_98" data-name="Path 98" d="M469.153,524.555h.984l0,5.043c.012.182.082.265.244.293a.945.945,0,0,0,.157.014c-.089.946-.066.71-.155,1.655l-1.094-.007a1.3,1.3,0,0,1-1.383-1.5l-.009-5.495Z" transform="translate(-205.891 -158.808)" fill-rule="evenodd"/>
    <path id="Path_99" data-name="Path 99" d="M487.7,535.6h0a.479.479,0,0,0-.438-.044.313.313,0,0,0-.194.264c-.033.157-.024.117-.056.276.47,0,.353,0,.822,0l-.007-.145A.432.432,0,0,0,487.7,535.6Zm1.817-1.089h0a2.282,2.282,0,0,1,.382,1.573c-.009.276,0,.19-.04.609l-.014.157a1.245,1.245,0,0,1-.033.23h-2.73a.439.439,0,0,0,.051.215.647.647,0,0,0,.689.351,16.11,16.11,0,0,0,1.634-.229c.108.836.082.627.189,1.461l-.775.171a7.241,7.241,0,0,1-.866.11,2.768,2.768,0,0,1-2.761-.986,3.073,3.073,0,0,1-.44-1.985,2.287,2.287,0,0,1,1.6-2.248,4.231,4.231,0,0,1,1.637-.122A1.964,1.964,0,0,1,489.516,534.513Z" transform="translate(-219.833 -166.432)" fill-rule="evenodd"/>
    <path id="Path_100" data-name="Path 100" d="M517.767,533.809h0a10.985,10.985,0,0,1,1.768.192l.124.021-.234,1.62-1.763-.267c-.092.007-.126.036-.117.112s.037.089.454.232c1.21.412,1.712.9,1.737,1.686a1.556,1.556,0,0,1-.615,1.445,3.055,3.055,0,0,1-2.016.323,7.788,7.788,0,0,1-1.257-.169l-.155-.035.141-1.574,1,.2a2.754,2.754,0,0,0,.9.093c.07-.03.08-.1.021-.161-.042-.044.033-.012-.527-.22a3.266,3.266,0,0,1-1.482-.917,1.727,1.727,0,0,1-.232-1.316,1.692,1.692,0,0,1,1.679-1.255A5.384,5.384,0,0,1,517.767,533.809Z" transform="translate(-245.163 -166.445)" fill-rule="evenodd"/>
    <path id="Path_101" data-name="Path 101" d="M543.706,537.081h0l-.009,0c-.307.073-.445.218-.426.452.014.169.079.241.225.244.209.005.3-.058.328-.23l.01-.485A1.047,1.047,0,0,0,543.706,537.081Zm-.915-3.2h0c1.547-.2,2.48-.066,2.882.4a1.728,1.728,0,0,1,.309,1.29l-.059,1.747c-.009.23.012.29.11.333a1.383,1.383,0,0,0,.361.049c.058,0,.07-.133-.084.916l-.077.525a4.9,4.9,0,0,0-.541.026,1.733,1.733,0,0,1-1.471-.379c-.021-.023-.038-.04-.059-.061l-.34.222a2.2,2.2,0,0,1-2.023-.03,1.573,1.573,0,0,1-.59-1.573c.1-.789.56-1.149,1.74-1.348l.829-.1-.031-.276c-.04-.1-.122-.114-.408-.086a9.653,9.653,0,0,0-1.07.178l-.328.077-.133.03-.159.038c-.194-.974-.145-.731-.337-1.7.634-.147.5-.119.976-.2C542.47,533.921,542.61,533.9,542.791,533.876Z" transform="translate(-266.387 -166.429)" fill-rule="evenodd"/>
    <path id="Path_102" data-name="Path 102" d="M574.8,524.555h1.005c0,2.9,0,2.173,0,5.071a.247.247,0,0,0,.243.265.692.692,0,0,0,.159.007l-.174,1.664-1.1-.01c-.831-.072-1.267-.442-1.355-1.149a24.507,24.507,0,0,1-.021-2.781l0-3.067Z" transform="translate(-293.107 -158.808)" fill-rule="evenodd"/>
    <path id="Path_103" data-name="Path 103" d="M593.371,535.626v0a.457.457,0,0,0-.415-.059c-.136.045-.187.114-.229.3a.508.508,0,0,0-.016.248h.772c0-.077,0-.058,0-.134C593.488,535.785,593.464,535.71,593.371,535.626Zm1.819-1.089v0a2.561,2.561,0,0,1,.361,1.87l-.037.422a2,2,0,0,0-.021.274h-2.765l.061.183c.087.257.323.388.686.382a14.571,14.571,0,0,0,1.5-.2l.15-.03.183,1.468-.916.19a6.754,6.754,0,0,1-1.578.094,2.528,2.528,0,0,1-1.6-.634,2.649,2.649,0,0,1-.758-2.061,2.809,2.809,0,0,1,.515-1.788,2.558,2.558,0,0,1,2.231-.892A2.306,2.306,0,0,1,595.19,534.537Z" transform="translate(-307.057 -166.451)" fill-rule="evenodd"/>
    <path id="Path_104" data-name="Path 104" d="M616.828,352.824l-4.2,7.975h-5.1l6.876-13.537c.1-.19.094-.185.073-.208s.094-.122-.868.656l-3.495,2.831-3.329,2.7-1.112-5.666c-.168-.862-.15-.789-.2-.8-.03,0-.016-.023-.1.134L598.323,360.8h-5.3l3.762-7.227c.789-1.513,1.629-3.128,2.418-4.643l4.957-9.525,5.161,0,.993,6.5c.009.058.018.1.028.152l4.313-3.388,4.064-3.193a.259.259,0,0,0,.038-.045c.028-.031-.426-.028,3.173-.028h1.979Z" transform="translate(-309.171 -5.976)" fill-rule="evenodd"/>
    <path id="Path_105" data-name="Path 105" d="M637.976,527.594h0a.361.361,0,0,0-.135-.089c-.094-.038-.031-.033-.445-.028v.056c0,.824,0,.618,0,1.44l.161,0c.356.005.468-.07.522-.353A1.542,1.542,0,0,0,637.976,527.594Zm1.8-1.26h0a2.562,2.562,0,0,1,.564,2.117,1.976,1.976,0,0,1-.574,1.389,2.46,2.46,0,0,1-1.592.51l-.515.023c-.126,0-.094,0-.22,0v2.074H635.15v-6.68l2.875.009A2.684,2.684,0,0,1,639.772,526.334Z" transform="translate(-343.947 -159.806)" fill-rule="evenodd"/>
    <path id="Path_106" data-name="Path 106" d="M668.9,537.1l0,0c-.269.084-.382.227-.358.452.016.155.085.222.232.225.2.005.295-.066.325-.236l.005-.466-.009,0A.359.359,0,0,0,668.9,537.1Zm-.827-3.224h0a7.835,7.835,0,0,1,1.671-.068c.815.075,1.215.312,1.409.833a2.313,2.313,0,0,1,.1,1.007l-.047,1.641,0,.239c.024.106.138.162.354.171a1.191,1.191,0,0,0,.159,0l-.215,1.445a3.274,3.274,0,0,0-.536.025,1.8,1.8,0,0,1-1.43-.339c-.037-.033-.066-.065-.1-.1l-.353.227a2.126,2.126,0,0,1-2.107-.108,1.618,1.618,0,0,1-.49-1.5c.091-.784.562-1.149,1.737-1.346.442-.054.332-.04.773-.1.04-.005.04,0,.038-.209a.149.149,0,0,0-.079-.143c-.087-.042-.194-.04-.583.009a10.735,10.735,0,0,0-1.185.236l-.126.028a.843.843,0,0,0-.134.033l-.314-1.583c-.009-.042-.014-.073-.021-.12a6.841,6.841,0,0,1,.744-.161C667.551,533.953,667.9,533.9,668.071,533.878Z" transform="translate(-369.793 -166.431)" fill-rule="evenodd"/>
    <path id="Path_107" data-name="Path 107" d="M702.121,534.1h0c.11-.007.061-.005.351-.01l-.063,1.665c0,.047,0,.078,0,.124-1.009,0-.861-.007-1.037.04-.239.063-.3.2-.293.649v2.751H698.82v-5.153h1.936l.079.372a1.248,1.248,0,0,1,.393-.258A2.224,2.224,0,0,1,702.121,534.1Z" transform="translate(-396.503 -166.674)" fill-rule="evenodd"/>
    <path id="Path_108" data-name="Path 108" d="M723.309,529.488v-.005l-.007.9h.992l.007,1.452h-1l0,2.126,1-.046-.072,1.416c0,.047,0,.084,0,.133l-.789.078c-.241.012-.181.007-.415.028a2.4,2.4,0,0,1-1.571-.305,1.225,1.225,0,0,1-.407-1.028l-.005-2.4h-.574V530.38l.69,0c.021-.225,0-.1.126-.868.005-.033.009-.054.016-.089h2.02Z" transform="translate(-414.365 -162.828)" fill-rule="evenodd"/>
    <path id="Path_109" data-name="Path 109" d="M747.643,373.664v0c-.014-.01-.024-.014-.072-.014-.168,0-.155-.005-.188.021-.058.051-.037.045-.145.045-1.18-.005-1.028-.009-1.068.023-.054.047-.044.04-.072.044-.12,0-.1,0-.124.017-.054.051-.054.051-.15.051-.187,0-.16,0-.18.012-.07.061-.052.052-.127.056-.143,0-.12,0-.159.023-.065.049-.052.042-.08.044-.085,0-.093,0-.126.026-.049.04-.04.035-.068.038-.126.007-.106,0-.133.028-.042.04-.035.037-.068.04-.107,0-.1,0-.133.026-.045.04-.038.035-.058.04-.068.014-.056.009-.082.031-.1.1-.087.089-.112.1-.089.028-.073.021-.1.049-.089.091-.075.079-.1.086-.072.016-.059.01-.092.04-.108.1-.091.086-.122.1l-.056.021c-.209.2-.182.171-.2.178-.086.026-.056,0-.208.157-.548.553-.478.48-.489.506a.337.337,0,0,1-.016.049c-.211.246-.183.213-.192.236s-.009.021-.017.051c-.2.208-.175.178-.183.21-.016.066-.012.056-.025.072-.042.047-.037.04-.04.056-.021.08-.016.066-.04.093-.093.1-.08.082-.087.1l-.033.082c-.038.051-.033.042-.037.058-.025.089-.016.072-.063.119-.072.072-.061.059-.072.084-.023.072-.017.059-.04.091-.007.012.009-.021-.114.232a.228.228,0,0,1-.031.054l-.234.482c-.005.092,0,.078-.016.1-.049.063-.049.065-.052.119,0,.079,0,.066-.012.084-.056.066-.047.051-.054.108-.007.094-.005.082-.017.1-.052.056-.047.047-.051.112,0,.141,0,.119-.021.161-.051.08-.044.065-.045.1,0,.168,0,.145-.019.169-.051.058-.045.045-.045.1-.005.246,0,.208-.045.271-.026.037-.023-.03-.023.463,0,1.341,0,1.17.017,1.2.052.061.052.061.051.152a.4.4,0,0,0,.007.143c.009.038-.007.005.11.227.019.051.014.037.035.089a.146.146,0,0,1,.051.1,1.052,1.052,0,0,0,.246.251l.079.028c.054.044.045.037.061.042.068.019.058.016.072.026.058.049.052.047.112.047.077-.005.065-.005.085.01.072.066.049.058.164.059.8,0,.691.007.738-.028.056-.051.047-.044.066-.044.1,0,.1,0,.122-.014.084-.068.068-.061.1-.058.073.009.061.009.089-.009a2.784,2.784,0,0,1,.285-.148l.256-.124c.3-.278.26-.241.283-.251l.056-.021c.215-.2.185-.173.206-.178.077-.017.065-.012.093-.04.264-.257.227-.223.255-.234.084-.026.065-.016.122-.077.208-.2.175-.178.237-.194.037-.009-.085.11.854-.838.305-.309.272-.272.283-.3l.023-.052c.194-.211.168-.182.178-.206l.023-.065c.208-.225.182-.2.187-.213.021-.079.016-.066.035-.087.143-.145.159-.164.169-.194.025-.075.018-.063.04-.086.093-.092.079-.075.094-.115.03-.08.023-.068.044-.089.068-.065.058-.052.073-.084.134-.274.115-.237.138-.26.073-.072.063-.059.073-.084.037-.1.028-.08.056-.112l.073-.082c.017-.047.014-.035.031-.082.042-.054.035-.045.04-.056l.031-.084c.042-.058.035-.047.042-.065.028-.082.021-.068.045-.1.1-.1.086-.089.091-.11.017-.07.014-.059.025-.072.04-.044.035-.037.04-.056.019-.07.018-.059.021-.066l.047-.066c.021-.082.014-.066.047-.1.1-.112.091-.094.094-.127.005-.1,0-.084.019-.112a.333.333,0,0,0,.044-.073l.031-.08c.045-.052.04-.042.042-.077,0-.173,0-.148.014-.175.056-.077.047-.058.052-.129,0-.33,0-.318.021-.351.049-.059.044-.049.044-.1,0-.552,0-.489-.012-.511-.054-.068-.047-.054-.052-.108-.01-.093-.007-.079-.019-.1-.047-.061-.04-.052-.044-.073-.017-.133-.012-.112-.03-.14-.044-.058-.038-.047-.04-.077-.007-.1,0-.094-.042-.138-.087-.094-.073-.075-.094-.126a.524.524,0,0,0-.178-.2c-.072-.014-.068-.012-.1-.047-.073-.075-.061-.065-.08-.075l-.1-.047c-.07-.047-.059-.04-.079-.04C747.68,373.713,747.7,373.72,747.643,373.664Zm3.081-4.027v0a3.293,3.293,0,0,0,.407.047,3.485,3.485,0,0,1,1.257.351,3.7,3.7,0,0,1,1.651,2.395,2.647,2.647,0,0,1,.089.85,4.19,4.19,0,0,1-.129.819,7.325,7.325,0,0,1-1.147,2.379,23.868,23.868,0,0,1-2.751,3.634,23.413,23.413,0,0,1-5.656,4.4,9.022,9.022,0,0,1-3.331,1.152c-.122.023-.093.017-.215.037a4.64,4.64,0,0,1-1.068-.005c-.206-.037-.155-.028-.361-.066a2.781,2.781,0,0,1-2.191-1.66,6.261,6.261,0,0,1-.492-1.955l-.051-.459a7.526,7.526,0,0,1,.033-1.276l.038-.375c.031-.3.131-.869.211-1.217a11.381,11.381,0,0,1,1.864-4.018A10.721,10.721,0,0,1,743,370.95a11.633,11.633,0,0,1,3.987-1.152l1.079-.1.41-.024.339-.042a15.7,15.7,0,0,1,1.9.009Z" transform="translate(-427.792 -30.904)" fill-rule="evenodd"/>
    <path id="Path_110" data-name="Path 110" d="M746,533.8h0a10.416,10.416,0,0,1,1.4.124c.2.031.126.017.5.091-.04.2-.009-.021-.215,1.506-.005.04-.009.068-.012.11l-1.782-.265c-.084,0-.113.033-.106.112s.03.082.387.206a3.048,3.048,0,0,1,1.526.892,1.579,1.579,0,0,1,.262,1.211,1.408,1.408,0,0,1-.651,1.089,3.174,3.174,0,0,1-1.946.286c-.277-.023-.208-.017-.487-.042-.391-.052-.684-.1-.834-.136-.052-.014-.056-.016-.108-.028l.141-1.581,1.131.241a1.834,1.834,0,0,0,.786.056c.061-.038.054-.115-.019-.171-.042-.031.023-.005-.452-.18a3.113,3.113,0,0,1-1.571-.99,1.736,1.736,0,0,1-.215-1.138,1.7,1.7,0,0,1,1.777-1.389A4.876,4.876,0,0,1,746,533.8Z" transform="translate(-433.562 -166.439)" fill-rule="evenodd"/>
    <path id="Path_111" data-name="Path 111" d="M783.78,525.154h.005a14.463,14.463,0,0,1,1.91.182l.2.031-.246,1.887-1.1-.182c-.8-.134-1.1-.087-1.114.171,0,.126.042.157.409.3a5.3,5.3,0,0,1,1.662.862,2.014,2.014,0,0,1,.532,1.936,1.89,1.89,0,0,1-.932,1.362,3.567,3.567,0,0,1-2.114.325,8.107,8.107,0,0,1-.971-.107c-.267-.045-.154-.023-.8-.161l.155-1.822.646.148a4.278,4.278,0,0,0,1.5.194.207.207,0,0,0,.155-.279c-.045-.131-.127-.175-.92-.5a3.436,3.436,0,0,1-1.091-.623,2.054,2.054,0,0,1-.576-2.074,2.083,2.083,0,0,1,2.074-1.632A4.405,4.405,0,0,1,783.78,525.154Z" transform="translate(-464.36 -159.298)" fill-rule="evenodd"/>
    <path id="Path_112" data-name="Path 112" d="M814.294,535.4h0a.293.293,0,0,0-.106-.009c-.265.037-.311.164-.318.9-.01.946.021,1.259.134,1.362a.346.346,0,0,0,.426,0c.1-.093.115-.209.134-.978l-.014-.611C814.54,535.545,814.5,535.451,814.294,535.4Zm.106-1.587h0a2.1,2.1,0,0,1,2.24,1.355,4.147,4.147,0,0,1,.187,1.217,4.348,4.348,0,0,1-.213,1.506c-.323.869-1.037,1.279-2.274,1.307a2.979,2.979,0,0,1-2.023-.557,2.914,2.914,0,0,1-.719-2.475,2.532,2.532,0,0,1,.62-1.714A2.842,2.842,0,0,1,814.4,533.813Z" transform="translate(-489.588 -166.448)" fill-rule="evenodd"/>
    <path id="Path_113" data-name="Path 113" d="M842.437,346.266l0,0c-.925,1.868-.693,1.4-1.618,3.268-.019.091-.021.089.283.089l2.926,0-2.348,4.388-3.105,0-.962,1.931c-.93,1.87-.7,1.4-1.63,3.269-.766,1.611-.839,1.824-.771,2.266.059.394.424.632,1.049.686a8.2,8.2,0,0,0,1.931-.215l.145-.04a.055.055,0,0,1,.075.049l-1.672,3.367-.263.056a13.1,13.1,0,0,1-2.3.258l-.3.01a9.116,9.116,0,0,1-1.2-.084,4.966,4.966,0,0,1-.909-.19,2.472,2.472,0,0,1-1.875-1.843,4.558,4.558,0,0,1,.2-2.236,12.25,12.25,0,0,1,.873-2.046l2.589-5.238h-1.629l2.346-4.39,1.482,0c.99-1.959.742-1.47,1.73-3.428.063-.044.035-.037.19-.058l5.184-.724Z" transform="translate(-504.646 -10.929)" fill-rule="evenodd"/>
    <path id="Path_114" data-name="Path 114" d="M847.236,536.885h0v-2.37h2.281c-.005,2.934,0,2.2-.007,5.134l-2.164-.007c-.017-.014-.016.012-.014-.185,0-.049-.009-.068-.03-.073s.021-.023-.29.138a2.473,2.473,0,0,1-1.456.232,1.221,1.221,0,0,1-1.182-1.241c-.017-.2-.016.094-.016-2.047v-1.95h2.3l.007,3.453c.019.086.106.117.251.089l.309-.1.007,0Z" transform="translate(-516.638 -167.029)" fill-rule="evenodd"/>
    <path id="Path_115" data-name="Path 115" d="M881.548,534.087h0a3.145,3.145,0,0,1,.346-.012l-.079,1.791c-.972,0-.829-.009-1,.033-.279.07-.333.2-.33.787.009,1.5.009,1.122.009,2.618H878.24v-5.151H880.2a2,2,0,0,0,.059.38.975.975,0,0,1,.3-.218A2.029,2.029,0,0,1,881.548,534.087Z" transform="translate(-544.604 -166.666)" fill-rule="evenodd"/>
    <path id="Path_116" data-name="Path 116" d="M901.449,373.67l0,0c-.038-.035-.038-.033-.124-.03-.127,0-.108,0-.129.014a.341.341,0,0,1-.058.04c-1.316.016-1.149.01-1.17.031-.044.042-.035.037-.056.042l-.143.026c-.079.054-.063.047-.108.049-.222,0-.19,0-.222.016-.086.054-.07.047-.112.051-.169,0-.145,0-.169.019-.052.047-.042.04-.075.044-.1.007-.1.007-.131.028-.059.044-.049.037-.077.04-.094.005-.079,0-.1.017-.1.058-.08.051-.1.052-.093,0-.077,0-.1.014a.267.267,0,0,1-.079.047.245.245,0,0,0-.082.042c-.1.091-.092.084-.129.1-.068.023-.058.017-.077.037-.089.091-.072.077-.124.1-.073.024-.063.019-.079.035-.1.1-.087.087-.113.1-.079.024-.066.019-.086.038-.134.129-.166.157-.2.168-.063.021-.051.014-.082.044-.67.663-.587.576-.6.609-.014.054.005.026-.138.187-.07.065-.058.049-.075.115a.75.75,0,0,1-.124.154l-.045.04c-.051.1-.038.073-.087.173a.3.3,0,0,1-.063.117c-.07.072-.058.054-.084.126l-.115.211c-.07.066-.059.056-.068.075l-.106.227c-.045.058-.04.049-.044.063-.016.066-.012.058-.023.072-.042.052-.037.044-.042.063-.017.066-.014.056-.026.072-.044.054-.037.045-.044.061-.019.072-.016.059-.028.077-.035.047-.03.04-.035.051l-.03.084c-.047.051-.04.04-.044.073-.005.124,0,.108-.023.129-.052.054-.052.056-.052.1.005.086.007.073-.023.115-.051.061-.046.049-.046.079,0,.107.005.091-.007.107-.072.084-.063.066-.061.12.012.141.012.12-.007.148-.066.084-.063.075-.061.129.01.14.01.12,0,.14-.066.084-.063.073-.063.159,0,.2,0,.173-.017.192-.051.054-.045.042-.051.131,0,1.634-.005,1.536.026,1.571.051.049.044.038.044.073-.005.227-.005.229.023.262.044.047.037.038.044.061.016.061.012.051.026.07a.271.271,0,0,1,.059.113l.059.12a1.187,1.187,0,0,0,.239.248c.049.019.037.014.086.031.058.047.047.04.068.047.061.016.052.012.065.021.066.047.054.042.082.045.113.01.094.007.124.024.078.054.058.047.155.045.77.007.67.009.705-.012.094-.061.079-.052.115-.056.08,0,.068,0,.091-.014.07-.049.056-.042.1-.049.122-.016.1-.012.124-.026.047-.042.04-.037.054-.04.073-.021.063-.017.073-.024.059-.045.051-.038.061-.042.075-.019.063-.016.079-.028.051-.042.042-.035.063-.044.073-.023.063-.019.072-.024l.068-.045c.075-.021.063-.016.085-.037.246-.248.209-.215.253-.229s.016.01.23-.18l.1-.045c.283-.271.243-.236.281-.244s.01.016.244-.206c.068-.072.056-.061.084-.068.072-.012.037.016.246-.194a9.042,9.042,0,0,0,.92-.936.2.2,0,0,1,.051-.1,1.107,1.107,0,0,0,.159-.185.34.34,0,0,1,.021-.056c.187-.2.162-.171.171-.19.031-.093.024-.077.049-.1.167-.168.145-.145.154-.164.033-.1.024-.079.058-.112.084-.086.072-.073.078-.094.023-.08.016-.068.068-.122.073-.073.063-.061.07-.086.017-.065.016-.054.021-.065.021-.033.016-.024.038-.058a.256.256,0,0,1,.072-.127c.073-.075.063-.063.07-.084.025-.085.023-.082.073-.127a.789.789,0,0,0,.133-.229c.017-.056.014-.047.024-.063l.047-.068c.016-.073.01-.061.037-.087.1-.1.087-.084.1-.113.017-.063.012-.054.026-.07.037-.044.031-.035.038-.058.017-.07.014-.058.028-.077.037-.045.031-.038.038-.058.028-.087.021-.073.045-.1.112-.115.1-.093.1-.155,0-.087,0-.075.014-.091.037-.042.031-.033.04-.058.019-.063.016-.054.026-.07.054-.077.054-.077.052-.134-.009-.129-.01-.122.017-.148.061-.056.056-.021.052-.34-.005-.12-.005-.1.01-.122a.187.187,0,0,0,.058-.173c0-.438,0-.421-.024-.454-.049-.059-.044-.049-.045-.075,0-.122,0-.1-.016-.122-.065-.073-.057-.059-.056-.094.007-.082.005-.089-.024-.122-.047-.051-.04-.042-.044-.072,0-.119,0-.1-.024-.129-.1-.1-.087-.086-.1-.12a.393.393,0,0,0-.2-.222c-.089-.037-.075-.03-.1-.049-.077-.077-.065-.065-.094-.079a.533.533,0,0,1-.07-.033c-.07-.04-.072-.042-.108-.045C901.477,373.705,901.5,373.712,901.449,373.67Zm3.05-4.039h0a3.506,3.506,0,0,0,.442.051,3.583,3.583,0,0,1,1.176.316,3.254,3.254,0,0,1,1.252,1.245,3.671,3.671,0,0,1,.543,1.9,4.915,4.915,0,0,1-.813,2.583,26.579,26.579,0,0,1-2.039,3.025,21.623,21.623,0,0,1-3.866,3.809,24.144,24.144,0,0,1-3.044,2,8.964,8.964,0,0,1-3.233,1.1,1.838,1.838,0,0,0-.2.037,4.556,4.556,0,0,1-1.091,0,2.352,2.352,0,0,0-.3-.052,2.876,2.876,0,0,1-2.079-1.328,5.9,5.9,0,0,1-.669-2.33l-.04-.278a8,8,0,0,1,.009-1.33,2.259,2.259,0,0,0,.047-.41c.012-.187.119-.824.194-1.156a10.519,10.519,0,0,1,1.433-3.447,12.317,12.317,0,0,1,3.983-4.121,15.61,15.61,0,0,1,2.664-1.081,8.963,8.963,0,0,1,1.927-.36l1.272-.122a3.411,3.411,0,0,0,.5-.049A15.151,15.151,0,0,1,904.5,369.631Z" transform="translate(-554.737 -30.9)" fill-rule="evenodd"/>
    <path id="Path_117" data-name="Path 117" d="M904.649,533.987h0a2.3,2.3,0,0,1,.278.094l-.213,1.557c-.007.051-.012.1-.016.147a3.02,3.02,0,0,0-.436-.147c-.682-.208-.911-.208-1.054,0a2.588,2.588,0,0,0-.131,1.274c.044.564.187.684.744.621l.766-.122.019,0,.22,1.381a1.151,1.151,0,0,0,.021.115l-.653.159a3.973,3.973,0,0,1-1.375.089,2.053,2.053,0,0,1-1.882-1.482,3.993,3.993,0,0,1-.143-1.456,2.711,2.711,0,0,1,.932-1.966,2.944,2.944,0,0,1,2.342-.4A5.1,5.1,0,0,1,904.649,533.987Z" transform="translate(-563.209 -166.429)" fill-rule="evenodd"/>
    <path id="Path_118" data-name="Path 118" d="M928.457,535.6h0a.473.473,0,0,0-.431-.049.308.308,0,0,0-.2.251.891.891,0,0,0-.039.292h.782l0-.133C928.577,535.757,928.554,535.687,928.457,535.6Zm1.824-1.087h0a2.259,2.259,0,0,1,.381,1.5,5.3,5.3,0,0,1-.032.534l-.026.295-.031.237h-2.73a.465.465,0,0,0,.061.239.646.646,0,0,0,.661.328c.2,0,1.086-.12,1.512-.2l.145-.028.171,1.346c.005.04.01.075.017.115l-.8.173a6.926,6.926,0,0,1-1.728.115,2.379,2.379,0,0,1-1.866-.964,3.329,3.329,0,0,1-.4-2.468,2.2,2.2,0,0,1,1.581-1.807,4.162,4.162,0,0,1,1.548-.114A2,2,0,0,1,930.281,534.517Z" transform="translate(-583.651 -166.433)" fill-rule="evenodd"/>
    <path id="Path_119" data-name="Path 119" d="M984.964,369.444a15.6,15.6,0,0,0-.922,1.871c-.11.23-.922,1.911-1.032,2.14a1.894,1.894,0,0,0-.152.337l-.366-.15a4.018,4.018,0,0,0-2.365-.113,6.287,6.287,0,0,0-2.786,1.636,10.093,10.093,0,0,0-1.728,2.191,31.874,31.874,0,0,0-1.653,3.138l-2.493,5.062-5.479-.005c-.03-.012-.031-.045-.005-.087.625-1.206.468-.9,1.093-2.109l2.292-4.418c.255-.49,2.236-4.413,2.482-4.914.365-.742.983-2.035,1.122-2.348.356-.8.269-.6.62-1.41l.356-.813c.01-.021.007-.016.017-.037l5.195-.019-.51,1.335c-.014.037-.005.066.019.073s-.14.086,1.2-.531c.915-.419.686-.314,1.6-.735.222-.108.073-.094,1.044-.094Z" transform="translate(-617.016 -30.732)" fill-rule="evenodd"/>
    <path id="Path_120" data-name="Path 120" d="M973.469,543.075v1.74h-3.7v-1.74Z" transform="translate(-620.157 -174.095)" fill-rule="evenodd"/>
    <path id="Path_121" data-name="Path 121" d="M1054.032,369.613l.007,0h.016a11.725,11.725,0,0,0-.415,1.262c-.538,1.677-.4,1.259-.941,2.938a8.433,8.433,0,0,0-1.187-.115c-1.672-.077-2.645.309-2.727,1.077a6.976,6.976,0,0,0,.288,2.049,8.466,8.466,0,0,0,.726,1.761,1.476,1.476,0,0,1,.187.723,5.109,5.109,0,0,1-.342,1.7,3.9,3.9,0,0,1-1.1,1.664l-1.021.892a9.107,9.107,0,0,1-2.3,1.421,9.44,9.44,0,0,1-2.6.663l-.229.017-.3.04a29.465,29.465,0,0,1-3.334.024h-.709l1.279-4.121a8.544,8.544,0,0,1,.908,0l3.538.045a1.222,1.222,0,0,0,.7-.63,2.413,2.413,0,0,0-.3-2.159c-.189-.363-.141-.272-.33-.637a5.206,5.206,0,0,1-.445-2.751,4.171,4.171,0,0,1,.937-2.267,10.119,10.119,0,0,1,2.61-2.351,8.915,8.915,0,0,1,3.207-1.168l.269-.042c.173-.051.038-.044.937-.044Z" transform="translate(-676.519 -30.912)" fill-rule="evenodd"/>
    <path id="Path_122" data-name="Path 122" d="M1099.368,373.874l0,0a.167.167,0,0,1-.038-.056c-.033-.1-.026-.087-.052-.093a.176.176,0,0,1-.066-.019l-.1-.058-.2-.1c-.061-.044.119-.038-1.266-.037-1.847,0-1.613-.005-1.636.059-.025.08-.019.066-.042.091-.185.182-.162.154-.166.192-.009.129-.005.112-.016.124l-.047.061c-.016.063-.012.052-.024.07-.042.059-.035.049-.04.065-.024.084-.017.07-.045.1-.1.1-.091.084-.1.141-.005.094,0,.078-.019.1-.037.047-.031.038-.038.059-.03.084-.026.077-.065.117-.079.079-.068.065-.075.089-.009.052-.007.044-.016.059l-.047.068c-.03.086-.031.091-.077.133-.068.059-.071.066-.044.1s.019.023.024.047l0-.021c0,.016-.007.023-.047.03s-.068.031-.049.068c.038.065.037.054.017.073-.1.1-.089.087-.1.113-.023.087-.017.079-.051.082-.067.009-.089.026-.091.072,0,.112,0,.1-.011.112-.04.049-.035.038-.044.065a.212.212,0,0,1-.028.066c-.04.063-.035.052-.042.073-.019.063-.016.052-.026.07-.03.045-.021.035-.051.08-.019.072-.014.059-.035.08-.1.1-.086.08-.094.108-.023.077-.019.065-.028.077-.042.047-.037.038-.04.056-.014.072-.011.061-.023.073-.038.042-.031.033-.04.056-.023.075-.018.063-.035.087-.047.066-.042.054-.042.084,0,.087,0,.1-.038.141-.1.094-.086.079-.091.1-.019.073-.016.063-.025.072-.042.047-.037.038-.04.056a.181.181,0,0,1-.056.115c-.1.1-.085.084-.087.129,0,.086.007.07-.025.113l-.108.2c-.033.089-.026.075-.047.1-.1.1-.089.084-.091.119,0,.115,0,.1-.016.119-.04.042-.033.035-.042.056-.021.072-.017.061-.028.075-.042.054-.037.045-.042.065a.206.206,0,0,1-.049.1l-.175.361c-.047.068-.04.058-.047.079-.028.082-.023.072-.032.082-.042.051-.036.042-.042.061-.017.075-.011.061-.042.093-.091.089-.078.075-.085.1-.014.063-.01.054-.025.072-.043.051-.037.04-.045.079-.129.264-.1.2-.227.461l-.241.466c-.031.089-.026.075-.045.1-.1.106-.086.089-.1.12-.026.079-.023.068-.03.077-.044.051-.038.04-.04.066-.009.129,0,.107-.043.155l-.089.178c-.026.073-.021.061-.04.084-.1.107-.091.091-.1.115-.01.058-.009.049-.016.061l-.046.059c-.031.1-.021.08-.073.127-.072.066-.063.051-.067.113,0,.1,0,.08-.019.106-.066.075-.064.073-.051.117.024.065-.16.058,1.293.047.489,0,.424,0,.445-.014a.9.9,0,0,1,.148-.072.431.431,0,0,0,.047-.03l.085-.038c.093-.054.077-.047.115-.049.157,0,.134,0,.161-.019.054-.04.042-.033.078-.045a.293.293,0,0,0,.073-.031,1.272,1.272,0,0,1,.222-.1c.085,0,.072,0,.1-.019.045-.037.036-.031.057-.038.07-.019.059-.014.077-.028.044-.037.037-.031.049-.037l.084-.031c.051-.035.042-.03.058-.037.094-.037.08-.03.1-.045.1-.094.08-.08.122-.1.075-.028.063-.023.084-.04.082-.082.068-.07.1-.082a.562.562,0,0,0,.064-.03c.052-.037.044-.031.061-.037.082-.028.077-.024.112-.058.08-.079.066-.066.1-.079.066-.024.056-.019.075-.037.281-.264.237-.227.305-.251l1.037-1.016c.475-.466.428-.419.435-.445a.183.183,0,0,1,.077-.133c.215-.21.188-.18.194-.2a.247.247,0,0,1,.014-.061c.351-.363.305-.312.32-.349a.249.249,0,0,1,.017-.051c.253-.269.248-.264.26-.293s.007-.024.018-.058c.27-.288.235-.248.246-.281.017-.051-.007-.017.176-.225l.052-.1a.241.241,0,0,0,.04-.066c.019-.054.016-.045.019-.054.209-.236.183-.2.19-.229.017-.065.014-.054.026-.072.04-.052.033-.044.04-.063a.205.205,0,0,1,.054-.11l.112-.232c.044-.065.039-.054.039-.073,0-.115-.005-.1.021-.126.049-.047.056-.061.051-.107-.009-.061-.009-.058.009-.082.042-.049.04-.047.051-.073l.033-.082c.042-.051.036-.04.036-.065,0-.119,0-.1.016-.122.059-.065.059-.063.058-.1-.007-.077-.007-.073.021-.113.054-.068.047-.052.047-.11,0-.143-.01-.117.049-.189a.205.205,0,0,0,0-.173c-.045-.047-.045-.047-.019-.075.045-.042.054-.089.026-.122-.061-.073-.054-.059-.056-.1,0-.173,0-.148-.021-.176-.044-.051-.036-.042-.044-.065-.021-.075-.016-.061-.042-.091-.1-.1-.085-.086-.094-.115C1099.506,374.01,1099.527,374.04,1099.368,373.874Zm4.631-3.025h0a2.859,2.859,0,0,1,1.222,2.042,5.133,5.133,0,0,1-1.007,3.114,28.025,28.025,0,0,1-1.943,2.557,25.353,25.353,0,0,1-2.512,2.62,16.526,16.526,0,0,1-3.226,2.287,23.363,23.363,0,0,1-5.35,1.946l-1.211.3c-.07.035.023-.122-.65,1.1l-1.241,2.255-1.124,2.048-4.627.084a7.568,7.568,0,0,1,.49-.969l2.606-5.02c.766-1.473.574-1.1,1.341-2.58l1.365-2.629,1.358-2.618c.677-1.3.508-.977,1.185-2.283.55-1.056.412-.793.96-1.85l1.576-3.039a6.39,6.39,0,0,1,.321-.6c4.12,0,3.089,0,7.209.007l.21.049.214.038a7.55,7.55,0,0,1,2.538.936C1103.816,370.716,1103.893,370.771,1104,370.849Z" transform="translate(-713.069 -30.913)" fill-rule="evenodd"/>
    <path id="Path_123" data-name="Path 123" d="M1120.843,483.757l34.386.768c.7.016.527.01,1.229.042,1.822.08,1.367.059,3.189.147.564.028.422.019.986.058l18.417,1.215.109.023.063.007c.005,0,.005,0-.017.033l.021-.033a1.819,1.819,0,0,1-.391.024L1164,485.686c-8.318-.2-6.239-.155-14.558-.3l-11.781-.2c-1.988-.033-1.491-.028-3.479-.042-2.816-.021-2.11-.016-4.926-.03l-8.925-.04.443-1.323Z" transform="translate(-744.436 -125.13)" fill-rule="evenodd"/>
    <path id="Path_124" data-name="Path 124" d="M1192.761,529.178l0,0,.106,2.845a2.821,2.821,0,0,0,.024.424h-2.072l0-3.14a.03.03,0,0,0-.042-.01c-.012.005-.014.014-.021.056l-.6,2.973c-.009.045-.014.075-.019.124l-1.924,0c-.326-1.648-.244-1.236-.571-2.885-.035-.178-.033-.168-.04-.218s-.018-.063-.044-.061-.03-.087-.03.642v2.522H1185.5c.038-1.159.03-.869.073-2.03l.089-2.393c.049-1.29.037-.967.089-2.257h2.892l.5,2.908c.028.124.021.108.052.114.079-.009.066.01.087-.14.271-1.646.2-1.234.475-2.882h2.882Z" transform="translate(-798.231 -159.806)" fill-rule="evenodd"/>
    <path id="Path_125" data-name="Path 125" d="M1217.2,373.661h0a.4.4,0,0,0-.248,0c-.065.056-.045.047-.14.052-1.2-.007-1.047-.009-1.081.017-.056.049-.044.044-.079.045-.112.005-.1,0-.115.019-.058.051-.061.052-.148.051-.192,0-.166,0-.183.009-.075.068-.058.059-.114.061-.161,0-.138-.005-.159.01-.068.058-.054.049-.1.054-.094,0-.08,0-.1.016-.061.045-.061.047-.11.052-.089,0-.077,0-.093.012-.068.056-.058.051-.117.054-.08,0-.068,0-.089.017-.039.035-.031.03-.051.037-.1.035-.085.028-.121.061-.068.073-.057.063-.08.072-.107.04-.089.031-.124.066-.066.07-.056.061-.075.07-.106.038-.091.03-.12.059-.08.08-.066.068-.1.082-.061.023-.052.019-.061.024-.21.194-.182.168-.206.178-.093.031-.085.026-.14.087-.623.623-.543.541-.559.58-.023.059,0,.033-.133.182-.051.047-.056.052-.066.079l-.023.063-.183.218a1.126,1.126,0,0,1-.127.244c-.072.072-.061.059-.07.084-.023.072-.019.061-.03.075-.042.054-.037.045-.044.063-.024.082-.017.072-.058.112-.082.084-.072.072-.077.087l-.019.066-.049.077c-.016.058-.014.049-.023.063l-.047.075a.363.363,0,0,1-.023.066l-.047.075c-.016.063-.012.052-.026.07-.042.045-.035.038-.04.056-.014.065-.01.054-.023.072-.04.047-.035.04-.04.056-.023.08-.018.068-.026.079-.047.049-.042.038-.045.08-.007.11-.005.094-.014.108-.056.07-.047.054-.052.1-.01.107-.009.093-.018.1-.047.058-.042.047-.045.072-.019.143-.016.124-.028.141-.049.065-.042.052-.044.084,0,.164,0,.14-.023.176-.051.077-.044.063-.045.1,0,.147,0,.124-.017.159-.056.1-.049.082-.051.133,0,.216,0,.187-.021.216-.058.07-.052.054-.052.194-.007,1.576-.009,1.458.014,1.494.07.1.061.08.063.141,0,.211,0,.181.018.209.035.047.03.038.037.059.021.07.015.058.033.082a2.151,2.151,0,0,1,.11.215.725.725,0,0,0,.277.276,1.467,1.467,0,0,1,.187.089c.093.051.079.045.1.044.08,0,.068-.005.1.017.072.058.049.049.15.051.672.007.721,0,.752-.033s.028-.037.059-.038c.112,0,.1,0,.117-.012.086-.066.07-.058.1-.056.051,0,.042,0,.054,0l.477-.241.11-.049c.274-.265.236-.23.269-.241a.363.363,0,0,0,.056-.021c.234-.208.2-.18.222-.187l.063-.024c.269-.257.239-.23.26-.237.061-.021.043-.01.126-.086.234-.213.2-.183.262-.2a3.942,3.942,0,0,0,.438-.422c.779-.777.681-.674.693-.712s.012-.044.021-.058c.19-.2.166-.171.175-.2.021-.068.021-.07.051-.1.161-.164.14-.141.147-.159.012-.038.009-.028.021-.065.2-.215.173-.185.18-.2.024-.075.023-.073.059-.112.089-.094.077-.08.082-.1.026-.084.023-.072.037-.089l.07-.073.1-.187c.024-.077.019-.065.043-.091.1-.1.084-.082.089-.1.021-.082.016-.068.04-.094.094-.094.08-.08.089-.1.023-.073.019-.063.03-.077.038-.047.033-.038.038-.056.021-.068.017-.058.024-.07.042-.063.037-.052.042-.066.028-.086.023-.073.058-.112.078-.086.068-.072.077-.1.023-.063.019-.054.028-.068a.234.234,0,0,0,.058-.113l.1-.192c.1-.1.087-.089.089-.119s0-.031,0-.075l.094-.194c.052-.082.045-.066.047-.108,0-.159,0-.138.014-.155.052-.054.047-.044.052-.131,0-.365,0-.316.014-.339.054-.061.047-.044.052-.129,0-.478.005-.443-.017-.478-.051-.07-.044-.056-.049-.1-.009-.1-.007-.084-.017-.1-.051-.065-.044-.052-.049-.094-.012-.115-.009-.1-.019-.113-.061-.07-.052-.056-.056-.1,0-.1.005-.08-.038-.126-.079-.08-.066-.066-.082-.1a.417.417,0,0,0-.2-.227c-.082-.031-.07-.024-.089-.044-.087-.089-.071-.075-.117-.093-.077-.028-.066-.023-.075-.031-.047-.044-.038-.038-.061-.04-.122,0-.1,0-.133-.023A.282.282,0,0,0,1217.2,373.661Zm3.088-4.023h0a3.166,3.166,0,0,0,.412.047,3.405,3.405,0,0,1,1.285.37,3.72,3.72,0,0,1,1.611,2.342,2.921,2.921,0,0,1,.089,1.042,6.318,6.318,0,0,1-.23,1.044,8.534,8.534,0,0,1-1.066,2.034,23.591,23.591,0,0,1-1.99,2.758c-.2.23-.147.173-.344.4l-.56.614a19.38,19.38,0,0,1-1.573,1.5,24.653,24.653,0,0,1-3.619,2.554,9.462,9.462,0,0,1-3.341,1.285c-.182.024-.136.019-.318.042l-.161.03a4.458,4.458,0,0,1-1.081,0,1.7,1.7,0,0,0-.318-.056,3.051,3.051,0,0,1-1.793-.943,4,4,0,0,1-.752-1.6,6.984,6.984,0,0,1-.187-1.058l-.037-.3a8.2,8.2,0,0,1,.005-1.389,2.884,2.884,0,0,0,.044-.408c.014-.178.124-.845.185-1.114a10.3,10.3,0,0,1,1.131-2.95,14.987,14.987,0,0,1,1.84-2.568,9.23,9.23,0,0,1,3.063-2.376,11.521,11.521,0,0,1,3.978-1.136l1.281-.12a3.48,3.48,0,0,0,.485-.047c.225-.03,1.206-.04,1.711-.019A2.227,2.227,0,0,1,1220.286,369.638Z" transform="translate(-815.388 -30.903)" fill-rule="evenodd"/>
    <path id="Path_126" data-name="Path 126" d="M1234.583,527h0a1.032,1.032,0,0,0-.164,0c-.478.042-.592.232-.628,1.054A6.857,6.857,0,0,0,1233.9,530c.091.227.314.342.663.339.321,0,.525-.107.6-.3a1.8,1.8,0,0,0,.089-.625,11.628,11.628,0,0,0-.017-1.677C1235.187,527.212,1235.021,527.025,1234.583,527Zm.192-1.847h0a3.6,3.6,0,0,1,1.543.351,2.5,2.5,0,0,1,1.241,2.079,7.83,7.83,0,0,1,0,1.885,2.779,2.779,0,0,1-1.145,2.116,4.065,4.065,0,0,1-4.057-.168,3,3,0,0,1-.908-2.058,7.776,7.776,0,0,1,0-1.636,3.021,3.021,0,0,1,.735-1.821,3.164,3.164,0,0,1,2.306-.758C1234.594,525.145,1234.67,525.147,1234.775,525.154Z" transform="translate(-836.125 -159.295)" fill-rule="evenodd"/>
    <path id="Path_127" data-name="Path 127" d="M1271.534,525.765h1.545c-.075.965-.056.724-.131,1.688a1.2,1.2,0,0,0,0,.138H1271.5v4.854h-2.323l0-4.854h-1.524c.057-1.044.044-.782.1-1.826Z" transform="translate(-866.041 -159.806)" fill-rule="evenodd"/>
    <path id="Path_128" data-name="Path 128" d="M1297.242,369.842a8.466,8.466,0,0,0-.656,1.321l-.747,1.554c-.405.838-.3.628-.705,1.468l0,.009-.288-.129a3.964,3.964,0,0,0-1.845-.237,4.793,4.793,0,0,0-2.049.71,8.636,8.636,0,0,0-2.6,2.519,21.224,21.224,0,0,0-1.666,2.927l-1.424,2.9c-.782,1.59-.587,1.192-1.374,2.781l-.143.288-5.462,0c-.035-.014-.042-.047-.019-.087.059-.093.08-.133.714-1.37l5.195-10.152c.6-1.264.452-.948,1.058-2.212.415-.937.311-.7.726-1.641.119-.283.089-.213.206-.5a.977.977,0,0,1,.091-.18l5.115-.017c.049.014.059.04.04.11-.271.7-.2.524-.471,1.222-.019.042-.007.075.026.077s-.033.028.424-.182l2.28-1.047c.333-.154.223-.134.763-.134Z" transform="translate(-874.786 -31.062)" fill-rule="evenodd"/>
    <path id="Path_129" data-name="Path 129" d="M1302.535,527l.01,0a.729.729,0,0,0-.628.2c-.124.157-.169.471-.185,1.285.009.4.007.3.018.707.019.754.1.976.384,1.081a.918.918,0,0,0,.918-.124,2.054,2.054,0,0,0,.169-.99,8.087,8.087,0,0,0-.082-1.7C1303.06,527.148,1302.895,527.022,1302.535,527Zm.2-1.847h0a4.073,4.073,0,0,1,1.229.218,2.348,2.348,0,0,1,1.526,2.1,8.659,8.659,0,0,1,.082.985,8.977,8.977,0,0,1-.058.971,2.843,2.843,0,0,1-1.077,2.105,3.367,3.367,0,0,1-1.833.511,3.979,3.979,0,0,1-1.873-.346,2.55,2.55,0,0,1-1.288-2.018,7.5,7.5,0,0,1-.079-1.527,3.966,3.966,0,0,1,.522-1.945,2.6,2.6,0,0,1,2.211-1.047A3.978,3.978,0,0,1,1302.736,525.152Z" transform="translate(-892.214 -159.293)" fill-rule="evenodd"/>
    <path id="Path_130" data-name="Path 130" d="M1341.512,527.638h0a.351.351,0,0,0-.152-.08c-.117-.031-.054-.028-.44-.024v1.3a2.734,2.734,0,0,0,.307,0c.276-.017.387-.138.414-.445A1,1,0,0,0,1341.512,527.638Zm2.4,1.236h0a1.8,1.8,0,0,1-.6.682c-.033.023-.061.042-.1.065l1.016,2.824h-2.414c-.384-1.293-.288-.969-.67-2.262-.012-.031-.079-.044-.148-.028-.037.01-.033-.107-.033.819l0,1.471h-2.238v-6.68l3.109.009a2.133,2.133,0,0,1,1.986.946,2.472,2.472,0,0,1,.26,1.33A1.965,1.965,0,0,1,1343.914,528.874Z" transform="translate(-924.714 -159.806)" fill-rule="evenodd"/>
    <path id="Path_131" data-name="Path 131" d="M1383.117,346.23l0,0-.827,1.665c-.473.95-.355.712-.824,1.662-.005.017-.009.026-.014.045l3.228,0-.126.267-2.21,4.121-3.1,0-2.629,5.338c-.669,1.356-.761,1.6-.747,1.978.016.459.264.695.841.8a6.3,6.3,0,0,0,2.158-.183l.171-.037a.043.043,0,0,1,.04.061c-.475.951-.356.714-.829,1.665l-.824,1.667-.3.082a13.029,13.029,0,0,1-2.3.25c-.159.005-.121,0-.277.01a9.118,9.118,0,0,1-1.189-.08,3.189,3.189,0,0,1-2.529-1.362,3.444,3.444,0,0,1-.14-2.651,10.623,10.623,0,0,1,.786-1.976c.768-1.571.574-1.178,1.351-2.744l1.4-2.823h-1.615a12.473,12.473,0,0,1,.707-1.349l1.564-2.927a.518.518,0,0,1,.075-.12l1.461.007c.2-.4.154-.3.356-.707.415-.826.312-.62.728-1.445.366-.724.274-.543.644-1.266.047-.058-.058-.037.731-.148l4.551-.639c.049-.019.066-.017.08.012s.017.009-.042.12C1383.429,345.6,1383.155,346.155,1383.117,346.23Z" transform="translate(-950.939 -10.911)" fill-rule="evenodd"/>
    <path id="Path_132" data-name="Path 132" d="M1375.7,554.806h0c.63.033.88.262.9.824a.883.883,0,0,1-.2.646,1.206,1.206,0,0,1-.9.248c-.744-.017-1.026-.269-1.018-.906.007-.529.272-.777.869-.808A2.054,2.054,0,0,1,1375.7,554.806Z" transform="translate(-954.222 -183.773)" fill-rule="evenodd"/>
    <path id="Path_133" data-name="Path 133" d="M1395.8,525.616l-.314,1.688a1.016,1.016,0,0,0-.017.145l-.845-.222c-.653-.143-.868-.129-1.077.068-.269.251-.375.873-.318,1.84a1.306,1.306,0,0,0,.365.978c.215.168.531.169,1.37.007l.316-.072.188-.038.353,1.723-.4.1a7.5,7.5,0,0,1-1.435.222,3.615,3.615,0,0,1-1.768-.318,2.681,2.681,0,0,1-1.318-2.288,6.6,6.6,0,0,1,.086-2.105,2.665,2.665,0,0,1,1.066-1.718,2.93,2.93,0,0,1,1.473-.449,4.62,4.62,0,0,1,1.258.059,6.185,6.185,0,0,1,1.042.292C1395.809,525.557,1395.8,525.583,1395.8,525.616Z" transform="translate(-967.734 -159.305)" fill-rule="evenodd"/>
    <path id="Path_134" data-name="Path 134" d="M1433.6,369.614l0,0h.033a13.722,13.722,0,0,0-.469,1.435l-.883,2.763-.546-.066a9.929,9.929,0,0,0-1.257-.052,3.827,3.827,0,0,0-1.344.227,1.025,1.025,0,0,0-.777,1.005,8.556,8.556,0,0,0,1.044,3.713,1.516,1.516,0,0,1,.159.845,5.35,5.35,0,0,1-.955,2.688,3.952,3.952,0,0,1-.773.765,10.952,10.952,0,0,1-2.342,1.728,8.866,8.866,0,0,1-3.016.951,4.576,4.576,0,0,1-.492.054l-.3.04c-.217.028.167.024-3.505.024h-.534a8.154,8.154,0,0,1,.353-1.185l.794-2.561a2.445,2.445,0,0,1,.124-.377l4.411.051a1.173,1.173,0,0,0,.768-.716,2.613,2.613,0,0,0-.424-2.22,5.291,5.291,0,0,1-.661-1.861,5.194,5.194,0,0,1-.052-1.185,4.485,4.485,0,0,1,.241-1.19,4.254,4.254,0,0,1,1-1.6l.363-.41a9.389,9.389,0,0,1,2.24-1.775,8.807,8.807,0,0,1,3.041-1.023l.239-.052a21.461,21.461,0,0,1,2.754-.019Z" transform="translate(-989.849 -30.912)" fill-rule="evenodd"/>
    <path id="Path_135" data-name="Path 135" d="M1423.215,527.006l.007,0c-.339-.021-.573.073-.674.272a3.746,3.746,0,0,0-.14,1.258,3.956,3.956,0,0,0,.161,1.547.719.719,0,0,0,.676.253c.417-.028.559-.162.608-.573a9.826,9.826,0,0,0-.03-2.281A.557.557,0,0,0,1423.215,527.006Zm.2-1.847h0a3.433,3.433,0,0,1,1.62.4,2.569,2.569,0,0,1,1.166,2.14,7.52,7.52,0,0,1,.03,1.316,3.235,3.235,0,0,1-.956,2.405,3.135,3.135,0,0,1-1.953.63,4.006,4.006,0,0,1-1.922-.351,2.529,2.529,0,0,1-1.267-1.962,7.009,7.009,0,0,1-.089-1.526,5.547,5.547,0,0,1,.164-1.161,2.385,2.385,0,0,1,.771-1.292,3.343,3.343,0,0,1,2.1-.606C1423.193,525.15,1423.3,525.152,1423.415,525.159Z" transform="translate(-991.828 -159.3)" fill-rule="evenodd"/>
    <path id="Path_136" data-name="Path 136" d="M1466.5,529.181h0l.129,3.264h-2.075l0-3.158a.02.02,0,0,0-.026-.009c-.03.01-.019-.026-.077.258l-.571,2.805c-.012.059-.009.045-.021.1h-1.911l-.625-3.13a.034.034,0,0,0-.033-.024c-.023,0-.019-.086-.019.632v2.522h-2.06l.269-6.68h2.9l.506,2.953c.01.065.017.07.091.066.026-.007.023.007.108-.5l.422-2.519h2.868C1466.447,527.718,1466.43,527.229,1466.5,529.181Z" transform="translate(-1024.163 -159.806)" fill-rule="evenodd"/>
    <path id="Path_137" data-name="Path 137" d="M257.119,369.665l-4.449,8.766c-2.54,5-1.9,3.749-4.442,8.75l-7.267.077,8.763-17.593Z" transform="translate(-18.564 -30.954)" fill="red" fill-rule="evenodd"/>
    <path id="Path_138" data-name="Path 138" d="M298.392,332.241h0c1.866.028,1.4.021,3.266.051l4.214.068c1.629.028,1.222.019,2.85.059l1.718.044a2.781,2.781,0,0,1,2.723,1.81,3.981,3.981,0,0,1,.164,1.719,5.332,5.332,0,0,1-.871,2.552,25.745,25.745,0,0,1-3.57,4.037,15.775,15.775,0,0,1-4.2,2.33c-.875.389-.656.292-1.531.684a1.777,1.777,0,0,0-.925,1.754,9.22,9.22,0,0,0,.246,1.958l.173,1.063a21.458,21.458,0,0,0,1.665,4.376l1.559,3.454-7.67,3.633-.909-2.709c-1.061-3.165-.906-2.683-1.091-3.369a51.571,51.571,0,0,1-1.047-5.727l-.063-.452c-.014-.166-.007-.1-.049-.419-.028-.222-.068-.948-.077-1.428a16.3,16.3,0,0,1,.044-1.735c.026-.487.019-.384.052-.717l.024-.227c.007-.07.005-.052.012-.12a7.031,7.031,0,0,1,.751-.419c.754-.395.7-.37,2.067-1.028a20.749,20.749,0,0,0,4.1-2.713c.688-.562,1.578-1.351,1.763-1.562.485-.55.541-1,.173-1.379a3.674,3.674,0,0,0-2.161-.738l-1.5-.012c-4.156-.031-3.118-.024-7.274-.045-2.356-.012-1.766-.01-4.123-.016l4.378-4.844,2.224.026c1.381.016,1.035.01,2.414.04Z" transform="translate(-58.136 -0.008)" fill="red" fill-rule="evenodd"/>
    <path id="Path_139" data-name="Path 139" d="M413.3,332.165l-2.486,4.84-8.134.017c-1.231,0-1.979.386-2.166,1.108a1.817,1.817,0,0,0,.187,1.269l3.268,5.994a4.383,4.383,0,0,1,.318,3.168,8.527,8.527,0,0,1-2.364,3.669,7.829,7.829,0,0,1-3.021,1.784,6.823,6.823,0,0,1-1.611.4l-12.234-.005-1.472-3.819,4.044-.068c.747-.012.56-.009,1.309-.028l3.92-.1a11.44,11.44,0,0,0,1.473-.058,2.722,2.722,0,0,0,2.056-.871,1.661,1.661,0,0,0-.185-1.878c-.126-.2.005.047-.92-1.766-.913-1.786-1.691-3.423-1.85-3.891-.665-1.939-.145-4.205,1.461-6.371a5.142,5.142,0,0,1,1.433-1.386,12.564,12.564,0,0,1,4.931-1.74c.393-.068.239-.047,1.065-.15.375-.047.3-.04.506-.054l.395-.049a19.938,19.938,0,0,1,2.123-.016Z" transform="translate(-136.289 0)" fill="red" fill-rule="evenodd"/>
    <path id="Path_140" data-name="Path 140" d="M521.69,332.607h.045l-11.659,22.3H503.76l11.185-22.306,6.719,0Z" transform="translate(-235.491 -0.363)" fill="red" fill-rule="evenodd"/>
    <path id="Path_141" data-name="Path 141" d="M1017.484,521.089c-1.215,2.39-.911,1.791-2.124,4.181l-1.849,3.638-.272.536-3.449.018c1.2-2.412.9-1.81,2.107-4.223l1.807-3.622c.15-.3.114-.227.262-.531Z" transform="translate(-653.191 -155.943)" fill="red" fill-rule="evenodd"/>
    <path id="Path_142" data-name="Path 142" d="M1037.375,503.206h0c.869,0,.573-.007,2.076.033.845.009.634.005,1.477.021,1.3.024.972.017,2.269.049a1.308,1.308,0,0,1,1.3,1,2.439,2.439,0,0,1-.075,1.241,3.759,3.759,0,0,1-.812,1.314,10.524,10.524,0,0,1-1.459,1.465,11.176,11.176,0,0,1-2.034,1.033c-.538.236-.576.258-.714.426-.187.229-.222.56-.124,1.175a6.281,6.281,0,0,0,.251,1.3,13.918,13.918,0,0,0,.679,1.688l.677,1.477.077.164-3.653,1.73-.845-2.528a19.83,19.83,0,0,1-.562-2.774,9.7,9.7,0,0,1-.138-1.9l.024-.318c.007-.129.005-.1.012-.225l.037-.318a7.735,7.735,0,0,1,.749-.4l.951-.473a12.743,12.743,0,0,0,2.314-1.728q.484-.445.253-.751a1.234,1.234,0,0,0-.8-.365,2.945,2.945,0,0,0-.841-.044c-2.3-.019-1.725-.016-4.024-.033-.876-.007-.656-.005-1.532-.009-.007,0-.009-.007-.009-.012l2.046-2.266c.241-.009.1-.009,1.014,0l.984.012C1037.162,503.2,1037.227,503.206,1037.375,503.206Z" transform="translate(-672.267 -141.155)" fill="red" fill-rule="evenodd"/>
    <path id="Path_143" data-name="Path 143" d="M1091.7,503.143h0c.241,0,.169,0,.5,0l-1.185,2.3a15.632,15.632,0,0,0-1.707-.009l-2.32.007c-.529.028-.859.25-.91.611a.952.952,0,0,0,.183.686c.613,1.114,1.479,2.713,1.531,2.828a2.212,2.212,0,0,1,.18.785,2.434,2.434,0,0,1-.225,1.023,4.113,4.113,0,0,1-3.039,2.362,19.354,19.354,0,0,1-2.54.016l-3.428,0-.024,0-.653-1.676c-.017-.049-.028-.082-.042-.129l1.091-.01c.272-.016.124-.014,1.04-.019l2.288-.051a3.737,3.737,0,0,0,1.187-.131c.529-.168.717-.506.543-.979a1.676,1.676,0,0,0-.188-.365c-.178-.314-.957-1.883-1.157-2.332a2.489,2.489,0,0,1-.216-1.4,4.106,4.106,0,0,1,.946-2.068,5,5,0,0,1,3.179-1.351c.763-.1.164-.093,4.189-.093Z" transform="translate(-709.52 -141.133)" fill="red" fill-rule="evenodd"/>
    <path id="Path_144" data-name="Path 144" d="M1144.018,503.365h.061a14.91,14.91,0,0,0-.785,1.475l-4.163,7.961c-.36.686-.269.515-.625,1.2H1135.5l3.131-6.237c.63-1.253.473-.939,1.1-2.194s.475-.946,1.108-2.206Z" transform="translate(-756.958 -141.316)" fill="red" fill-rule="evenodd"/>
  </g>
</svg>
