<svg xmlns="http://www.w3.org/2000/svg" width="30.399" height="23.156" viewBox="0 0 30.399 23.156"><defs><style>.a{fill:#f2f2f2;}.b{fill:#fa0c1b;}.c{fill:#fff;}</style></defs><path class="a" d="M91,300v5.344h19.593V300Zm0,0" transform="translate(-85.597 -282.188)"/><path class="a" d="M256,300h9.8v5.344H256Zm0,0" transform="translate(-240.8 -282.188)"/><path class="b" d="M109.272,94.7l-1.443,2.814H90.943L89.5,94.7a12.743,12.743,0,0,1,19.771,0Zm0,0" transform="translate(-84.186 -84.656)"/><path class="b" d="M265.886,94.7l-1.443,2.814H256V90a12.071,12.071,0,0,1,9.886,4.7Zm0,0" transform="translate(-240.8 -84.656)"/><path class="c" d="M61.154,75.423,57.823,86.752H38.23L34.9,75.423l2.244-.855a6.277,6.277,0,0,0,4.542,3.277h.926c2.048-.321,3.58-3.456,4.2-6.448h2.422c.623,2.993,2.155,6.128,4.2,6.448h.926a6.277,6.277,0,0,0,4.542-3.277Zm0,0" transform="translate(-32.827 -67.159)"/><path class="c" d="M269.128,75.424,265.8,86.752H256V71.4h1.211c.624,2.993,2.155,6.128,4.2,6.448h.926a6.277,6.277,0,0,0,4.542-3.277Zm0,0" transform="translate(-240.801 -67.159)"/><path class="a" d="M2.731,65.344a2.672,2.672,0,1,1,0-5.344,2.672,2.672,0,0,1,0,5.344Zm0,0" transform="translate(0 -56.438)"/><path class="a" d="M423.672,65.344a2.672,2.672,0,1,1,0-5.344,2.672,2.672,0,1,1,0,5.344Zm0,0" transform="translate(-396.004 -56.438)"/><path class="a" d="M213.672,0a2.672,2.672,0,1,0,2.672,2.672A2.668,2.668,0,0,0,213.672,0Zm0,0" transform="translate(-198.472)"/><path class="b" d="M207.745,173.7l-3.046,3.046,3.046,3.046,3.046-3.046Zm0,0" transform="translate(-192.545 -163.386)"/><path class="b" d="M326.048,233.785l1.259,1.259-1.259,1.259-1.259-1.259Zm0,0" transform="translate(-305.505 -219.904)"/><path class="b" d="M146.048,233.785l1.259,1.259-1.259,1.259-1.259-1.259Zm0,0" transform="translate(-136.192 -219.904)"/><path class="a" d="M256,5.344V0a2.672,2.672,0,0,1,0,5.344Zm0,0" transform="translate(-240.8)"/><path class="b" d="M259.046,176.745,256,179.791V173.7Zm0,0" transform="translate(-240.8 -163.386)"/></svg>