<svg xmlns="http://www.w3.org/2000/svg" width="94" height="94" viewBox="0 0 94 94">
  <g id="Group_1458" data-name="Group 1458" transform="translate(-914 -214)">
    <circle id="Ellipse_3" data-name="Ellipse 3" cx="47" cy="47" r="47" transform="translate(914 214)" fill="#fa0c1b" opacity="0.1"/>
    <g id="fast-delivery" transform="translate(926 237.961)">
      <path id="Path_41" data-name="Path 41" d="M67.944,28.454,64.5,23.178a8.229,8.229,0,0,0-6.921-3.723H48.657V14.323a5.687,5.687,0,0,0-5.681-5.681H26.283A10.6,10.6,0,1,0,10.01,19.455H1.081a1.082,1.082,0,1,0,0,2.163H11.894V23.78H7.568a1.081,1.081,0,0,0,0,2.162h4.325v2.162H1.081a1.082,1.082,0,1,0,0,2.163H11.894v4.789A5.423,5.423,0,0,0,8.65,40.013v1.067a1.081,1.081,0,0,0,1.082,1.082h9.59a5.971,5.971,0,0,0,11.635,0h20.8a5.971,5.971,0,0,0,11.635,0h3.644a1.08,1.08,0,0,0,1.081-1.082V29.046a1.082,1.082,0,0,0-.176-.591ZM7.442,10.637a8.436,8.436,0,1,1,8.436,8.436,8.446,8.446,0,0,1-8.436-8.436Zm6.614,19.631h2.162a1.082,1.082,0,0,0,0-2.163H14.056V25.943h7.569a1.081,1.081,0,0,0,0-2.162H14.056V21.618H28.113a1.082,1.082,0,0,0,0-2.163H21.747a10.593,10.593,0,0,0,4.722-8.65H42.977a3.523,3.523,0,0,1,3.518,3.519v20.27H14.056ZM46.495,40H31.055a5.952,5.952,0,0,0-1.537-3.244H46.495ZM14.07,36.755h6.69A5.952,5.952,0,0,0,19.224,40H10.812a3.262,3.262,0,0,1,3.258-3.244Zm11.069,7.87a3.815,3.815,0,1,1,3.815-3.815,3.82,3.82,0,0,1-3.815,3.815Zm32.438,0a3.815,3.815,0,1,1,3.815-3.815A3.82,3.82,0,0,1,57.578,44.625ZM65.957,40H63.494a5.971,5.971,0,0,0-11.832,0h-3V21.618h8.917a6.076,6.076,0,0,1,5.112,2.743l3.271,5.007Zm0,0" fill="#fa0c1b"/>
      <path id="Path_42" data-name="Path 42" d="M355.89,248.054a1.769,1.769,0,1,1-1.769-1.769A1.769,1.769,0,0,1,355.89,248.054Zm0,0" transform="translate(-296.543 -207.243)" fill="#fa0c1b"/>
      <path id="Path_43" data-name="Path 43" d="M151.092,248.054a1.769,1.769,0,1,1-1.769-1.769A1.769,1.769,0,0,1,151.092,248.054Zm0,0" transform="translate(-124.184 -207.243)" fill="#fa0c1b"/>
      <path id="Path_44" data-name="Path 44" d="M84.906,36.073V31.343a1.081,1.081,0,0,0-2.162,0v4.378l-2.207,3.027a1.081,1.081,0,1,0,1.747,1.273L84.7,36.71a1.081,1.081,0,0,0,.207-.637Zm0,0" transform="translate(-67.606 -25.436)" fill="#fa0c1b"/>
      <path id="Path_45" data-name="Path 45" d="M344.482,143.1h-2.068a1.081,1.081,0,0,0-1.082,1.081v7.569a1.081,1.081,0,0,0,1.082,1.081h7.277a1.878,1.878,0,0,0,1.631-2.809l-2.525-4.419a4.981,4.981,0,0,0-4.315-2.5Zm-.987,7.569v-5.406h.987a2.811,2.811,0,0,1,2.437,1.414l2.281,3.993Zm0,0" transform="translate(-287.269 -120.406)" fill="#fa0c1b"/>
    </g>
  </g>
</svg>
