<svg xmlns="http://www.w3.org/2000/svg" width="94" height="94" viewBox="0 0 94 94">
  <g id="Group_1457" data-name="Group 1457" transform="translate(-514 -214)">
    <circle id="Ellipse_2" data-name="Ellipse 2" cx="47" cy="47" r="47" transform="translate(514 214)" fill="#fa0c1b" opacity="0.1"/>
    <g id="Group_132" data-name="Group 132" transform="translate(-7 -338)">
      <path id="Path_39" data-name="Path 39" d="M122.788,162.159c5.361,0,10.788-1.478,10.788-4.3V149.71c0-2.836-5.427-4.32-10.788-4.32S112,146.874,112,149.71v8.146C112,160.681,117.427,162.159,122.788,162.159Zm0-1.8c-5.817,0-8.99-1.654-8.99-2.5v-1.514c2.037,1.206,5.522,1.831,8.99,1.831s6.954-.625,8.99-1.831v1.514C131.778,158.707,128.606,160.361,122.788,160.361Zm8.99-6.508c0,.856-3.173,2.522-8.99,2.522s-8.99-1.665-8.99-2.522V152.2c2.037,1.206,5.522,1.83,8.99,1.83s6.954-.625,8.99-1.83Zm-8.99-6.664c5.817,0,8.99,1.665,8.99,2.522s-3.173,2.521-8.99,2.521-8.99-1.665-8.99-2.521S116.971,147.188,122.788,147.188Z" transform="translate(444.687 451.6)" fill="#fa0c1b"/>
      <path id="Path_40" data-name="Path 40" d="M101.249,54.7H89.668V52.9a.9.9,0,1,0-1.8,0v1.8H77.081V52.9a.9.9,0,0,0-1.8,0v1.8H63.7A3.707,3.707,0,0,0,60,58.4V95.046a3.707,3.707,0,0,0,3.7,3.7h37.546a3.707,3.707,0,0,0,3.7-3.7V58.4A3.707,3.707,0,0,0,101.249,54.7ZM63.7,56.5H75.283v2.947a1.8,1.8,0,1,0,1.8,0V56.5H87.87v2.947a1.8,1.8,0,1,0,1.8,0V56.5h11.581a1.907,1.907,0,0,1,1.9,1.9v7.085H61.8V58.4A1.907,1.907,0,0,1,63.7,56.5Zm1.692,10.788H99.557V92.021a1.336,1.336,0,0,1-1.335,1.334H66.729a1.336,1.336,0,0,1-1.335-1.334Zm35.854,29.668H63.7a1.907,1.907,0,0,1-1.9-1.9V67.283h1.8V92.021a3.136,3.136,0,0,0,3.133,3.132H98.222a3.136,3.136,0,0,0,3.133-3.132V67.283h1.8V95.046A1.907,1.907,0,0,1,101.249,96.951Z" transform="translate(485 524)" fill="#fa0c1b"/>
    </g>
  </g>
</svg>
