<svg xmlns="http://www.w3.org/2000/svg" width="94" height="94" viewBox="0 0 94 94">
  <g id="Group_1459" data-name="Group 1459" transform="translate(-1314 -214)">
    <circle id="Ellipse_4" data-name="Ellipse 4" cx="47" cy="47" r="47" transform="translate(1314 214)" fill="#fa0c1b" opacity="0.1"/>
    <g id="steering" transform="translate(1320.829 220.81)">
      <path id="Path_46" data-name="Path 46" d="M206.5,201.13a5.37,5.37,0,1,0,5.37,5.37A5.37,5.37,0,0,0,206.5,201.13Zm0,9.566a4.2,4.2,0,1,1,4.2-4.2A4.2,4.2,0,0,1,206.5,210.7Z" transform="translate(-165.954 -165.937)" fill="#fa0c1b" stroke="#fa0c1b" stroke-width="1"/>
      <path id="Path_47" data-name="Path 47" d="M237.92,174.546a.589.589,0,0,0,.1-.008,7.04,7.04,0,0,1,1.143-.094.587.587,0,0,0,0-1.175,8.222,8.222,0,0,0-1.335.11.587.587,0,0,0,.1,1.167Z" transform="translate(-198.613 -140.804)" fill="#fa0c1b" stroke="#fa0c1b" stroke-width="1"/>
      <path id="Path_48" data-name="Path 48" d="M178.543,181.052a.587.587,0,0,0-.48-1.072,8.11,8.11,0,0,0-4.794,7.394.587.587,0,0,0,1.175,0A6.934,6.934,0,0,1,178.543,181.052Z" transform="translate(-140.821 -146.811)" fill="#fa0c1b" stroke="#fa0c1b" stroke-width="1"/>
      <path id="Path_49" data-name="Path 49" d="M58.17,25.211a23.373,23.373,0,1,0,5.749,15.352A23.373,23.373,0,0,0,58.17,25.211ZM40.546,18.365a22.2,22.2,0,0,1,16.5,7.347l-1.026,2.679a19.683,19.683,0,0,0-30.939,0l-1.029-2.675a22.2,22.2,0,0,1,16.5-7.351ZM58.472,35.927,48.707,33.96a10.5,10.5,0,0,0-16.322,0l-9.764,1.967a18.518,18.518,0,0,1,35.851,0Zm4.273,4.637A22.2,22.2,0,1,1,23.181,26.735l1.07,2.782a19.484,19.484,0,0,0-2.984,7.046.587.587,0,0,0,.691.694l9.473-1.909a10.508,10.508,0,0,0,0,10.428L21.96,43.869a.587.587,0,0,0-.691.694A19.7,19.7,0,0,0,36.9,59.909a.587.587,0,0,0,.7-.577V50.639a10.508,10.508,0,0,0,5.91,0v8.694a.587.587,0,0,0,.7.577A19.7,19.7,0,0,0,59.824,44.563a.587.587,0,0,0-.691-.694L49.66,45.777a10.392,10.392,0,0,0,1.385-5.214A10.6,10.6,0,0,0,50.9,38.8a.587.587,0,1,0-1.158.2,9.434,9.434,0,0,1,.13,1.563,9.323,9.323,0,0,1-16.7,5.711,9.325,9.325,0,1,1,15.7-9.918.587.587,0,0,0,1.047-.531c-.081-.161-.168-.319-.258-.476l9.474,1.909a.587.587,0,0,0,.691-.694,19.484,19.484,0,0,0-2.984-7.046l1.071-2.783A22.187,22.187,0,0,1,62.745,40.563Zm-30.358,6.6a10.5,10.5,0,0,0,4.03,3.05v8.393A18.539,18.539,0,0,1,22.621,45.2ZM44.676,58.611V50.219a10.508,10.508,0,0,0,4.031-3.051L58.472,45.2a18.539,18.539,0,0,1-13.8,13.411Z" transform="translate(0 0)" fill="#fa0c1b" stroke="#fa0c1b" stroke-width="1"/>
    </g>
  </g>
</svg>
