<svg xmlns="http://www.w3.org/2000/svg" width="29" height="29" viewBox="0 0 29 29">
  <g id="Favourite-1" transform="translate(-88.286 -332.935)">
    <path id="Path" d="M88.286,332.935h29v29h-29Z" transform="translate(0 0)" fill="none"/>
    <path id="Path-2" data-name="Path" d="M88.286,332.935h29v29h-29Z" transform="translate(0 0)" fill="none"/>
    <path id="Path-3" data-name="Path" d="M111.847,346.919a5.878,5.878,0,0,0,0-8.144,5.459,5.459,0,0,0-7.878,0l-1.088,1.118a.58.58,0,0,1-.832,0l-1.088-1.118a5.458,5.458,0,0,0-7.876,0,5.878,5.878,0,0,0,0,8.144l9.381,9.644Zm-9.381-8.261.673-.693a6.618,6.618,0,0,1,9.539,0,7.038,7.038,0,0,1,0,9.763l-9.8,10.072a.58.58,0,0,1-.832,0l-9.8-10.072a7.038,7.038,0,0,1,0-9.763,6.62,6.62,0,0,1,9.54,0Z" transform="translate(0.32 0.48)" fill="#707070"/>
  </g>
</svg>
