<svg xmlns="http://www.w3.org/2000/svg" width="31.691" height="37.465" viewBox="0 0 31.691 37.465">
  <g id="location" transform="translate(-39.451)">
    <g id="Group_1444" data-name="Group 1444" transform="translate(39.451)">
      <g id="Group_1443" data-name="Group 1443" transform="translate(0)">
        <path id="Path_148" data-name="Path 148" d="M66.5,4.641a15.846,15.846,0,0,0-27.051,11.2c0,8.562,8.1,15.684,12.445,19.51.6.532,1.126.991,1.542,1.379a2.73,2.73,0,0,0,3.717,0c.416-.388.938-.848,1.542-1.379,4.349-3.826,12.445-10.948,12.445-19.51A15.743,15.743,0,0,0,66.5,4.641ZM57.248,33.708c-.618.543-1.151,1.013-1.591,1.423a.53.53,0,0,1-.721,0c-.44-.411-.973-.88-1.591-1.423-4.089-3.6-11.7-10.292-11.7-17.862a13.651,13.651,0,0,1,27.3,0C68.948,23.416,61.337,30.111,57.248,33.708Z" transform="translate(-39.451)" fill="#fd0d1b"/>
      </g>
    </g>
    <g id="Group_1446" data-name="Group 1446" transform="translate(48.314 8.264)">
      <g id="Group_1445" data-name="Group 1445" transform="translate(0)">
        <path id="Path_149" data-name="Path 149" d="M167.553,112.938a6.983,6.983,0,1,0,6.983,6.983A6.991,6.991,0,0,0,167.553,112.938Zm0,11.771a4.788,4.788,0,1,1,4.788-4.788A4.794,4.794,0,0,1,167.553,124.709Z" transform="translate(-160.57 -112.938)" fill="#fd0d1b"/>
      </g>
    </g>
  </g>
</svg>
