<svg xmlns="http://www.w3.org/2000/svg" width="37.411" height="37.465" viewBox="0 0 37.411 37.465">
  <g id="phone-call" transform="translate(-0.344)">
    <g id="Group_1447" data-name="Group 1447" transform="translate(0.344 0)">
      <path id="Path_150" data-name="Path 150" d="M29.926,48.447a3.685,3.685,0,0,0-2.673-1.226,3.81,3.81,0,0,0-2.7,1.218l-2.5,2.491c-.206-.111-.411-.213-.609-.316-.285-.142-.554-.277-.783-.419a27.157,27.157,0,0,1-6.508-5.93A16.022,16.022,0,0,1,12.017,40.9c.648-.593,1.249-1.21,1.834-1.8.221-.221.443-.451.664-.672a3.628,3.628,0,0,0,0-5.472L12.357,30.79c-.245-.245-.5-.5-.735-.751-.474-.49-.973-1-1.487-1.471a3.743,3.743,0,0,0-2.649-1.162A3.873,3.873,0,0,0,4.8,28.568l-.016.016L2.093,31.3A5.785,5.785,0,0,0,.377,34.973,13.862,13.862,0,0,0,1.389,40.84,34.046,34.046,0,0,0,7.438,50.93a37.211,37.211,0,0,0,12.391,9.7,19.305,19.305,0,0,0,6.958,2.056c.166.008.34.016.5.016a5.958,5.958,0,0,0,4.562-1.961c.008-.016.024-.024.032-.04a17.976,17.976,0,0,1,1.384-1.431c.34-.324.688-.664,1.028-1.02a3.945,3.945,0,0,0,1.194-2.736A3.8,3.8,0,0,0,34.268,52.8Zm2.831,8.326c-.008,0-.008.008,0,0-.308.332-.625.633-.965.965a20.792,20.792,0,0,0-1.526,1.581,3.812,3.812,0,0,1-2.973,1.257c-.119,0-.245,0-.364-.008a17.15,17.15,0,0,1-6.168-1.85A35.125,35.125,0,0,1,9.091,49.578,32.1,32.1,0,0,1,3.4,40.1a11.29,11.29,0,0,1-.886-4.95A3.63,3.63,0,0,1,3.6,32.8l2.7-2.7a1.8,1.8,0,0,1,1.2-.561,1.691,1.691,0,0,1,1.154.554l.024.024c.482.451.941.917,1.423,1.415.245.253.5.506.751.767l2.159,2.159a1.509,1.509,0,0,1,0,2.451c-.229.229-.451.459-.68.68-.664.68-1.3,1.313-1.985,1.929-.016.016-.032.024-.04.04A1.613,1.613,0,0,0,9.9,41.354l.024.071a17.331,17.331,0,0,0,2.554,4.167l.008.008A29.023,29.023,0,0,0,19.5,51.99a10.8,10.8,0,0,0,.973.53c.285.142.554.277.783.419.032.016.063.04.095.055a1.714,1.714,0,0,0,.783.2,1.691,1.691,0,0,0,1.2-.546l2.7-2.7a1.789,1.789,0,0,1,1.194-.593,1.61,1.61,0,0,1,1.139.577l.016.016L32.749,54.3A1.563,1.563,0,0,1,32.757,56.774Z" transform="translate(-0.344 -25.239)" fill="#fd0d1b"/>
      <path id="Path_151" data-name="Path 151" d="M245.822,88.043a10.177,10.177,0,0,1,8.287,8.287,1.061,1.061,0,0,0,1.052.886,1.411,1.411,0,0,0,.182-.016,1.068,1.068,0,0,0,.878-1.234A12.305,12.305,0,0,0,246.194,85.94a1.073,1.073,0,0,0-1.234.87A1.056,1.056,0,0,0,245.822,88.043Z" transform="translate(-225.603 -79.131)" fill="#fd0d1b"/>
      <path id="Path_152" data-name="Path 152" d="M266.526,16.527A20.262,20.262,0,0,0,250.015.016a1.066,1.066,0,1,0-.348,2.1,18.1,18.1,0,0,1,14.755,14.755,1.061,1.061,0,0,0,1.052.886,1.411,1.411,0,0,0,.182-.016A1.048,1.048,0,0,0,266.526,16.527Z" transform="translate(-229.131 0)" fill="#fd0d1b"/>
    </g>
  </g>
</svg>
