<svg xmlns="http://www.w3.org/2000/svg" width="29" height="29" viewBox="0 0 29 29">
  <g id="Stroller" transform="translate(-188.286 -229.339)">
    <path id="path" d="M188.286,229.339h29v29h-29Z" fill="none"/>
    <path id="path-2" data-name="path" d="M201.306,250.9h7.284a.58.58,0,1,1,0,1.16h-7.284a4.062,4.062,0,0,1-4.046-3.714,4.062,4.062,0,0,1-2.675-3.378l-1.174-9.939a1.74,1.74,0,0,0-1.727-1.529h-.818a.58.58,0,0,1,0-1.16h.818a2.9,2.9,0,0,1,2.878,2.547l.256,2.093h18.088a.58.58,0,0,1,.566.705l-1.714,7.715a4.061,4.061,0,0,1-3.964,3.18h-9.173c-.053,0-.106,0-.158,0A2.9,2.9,0,0,0,201.306,250.9Zm-6.313-12.76.745,6.7a2.9,2.9,0,0,0,2.883,2.58h9.173a2.9,2.9,0,0,0,2.832-2.271l1.557-7.009Z" transform="translate(0.32 0.48)" fill="#707070"/>
    <path id="path-3" data-name="path" d="M206.606,252.979a2.32,2.32,0,1,1,2.32-2.32A2.32,2.32,0,0,1,206.606,252.979Zm0-1.16a1.16,1.16,0,1,0-1.16-1.16A1.16,1.16,0,0,0,206.606,251.819Z" transform="translate(2.56 3.04)" fill="#707070"/>
    <path id="path-4" data-name="path" d="M199.606,252.979a2.32,2.32,0,1,1,2.32-2.32A2.32,2.32,0,0,1,199.606,252.979Zm0-1.16a1.16,1.16,0,1,0-1.16-1.16A1.16,1.16,0,0,0,199.606,251.819Z" transform="translate(1.44 3.04)" fill="#707070"/>
  </g>
</svg>
