<svg xmlns="http://www.w3.org/2000/svg" id="Stroller" width="25.34" height="25.34" viewBox="0 0 25.34 25.34">
    <defs>
        <style>
            .cls-2{fill:#fff}
        </style>
    </defs>
    <path id="path-1535" fill="none" d="M1623.57 891.89h25.34v25.34h-25.34z" transform="translate(-1623.57 -891.89)"/>
    <path id="path-1536" d="M1635.2 911.108h6.364a.507.507 0 1 1 0 1.014h-6.364a27.038 27.038 0 0 1-5.872-6.2l-1.027-8.686a1.518 1.518 0 0 0-1.509-1.336h-.715a.507.507 0 0 1 0-1.014h.715a2.533 2.533 0 0 1 2.516 2.23l.223 1.824h15.8a.506.506 0 0 1 .495.616l-1.5 6.741a3.547 3.547 0 0 1-3.463 2.778h-8.154a2.536 2.536 0 0 0 2.491 2.033zm-5.515-11.149l.65 5.854a2.534 2.534 0 0 0 2.519 2.254h8.016a2.533 2.533 0 0 0 2.473-1.985l1.362-6.124z" class="cls-2" transform="translate(-1623.543 -891.849)"/>
    <path id="path-1537" d="M1641.6 914.944a2.027 2.027 0 1 1 2.027-2.027 2.028 2.028 0 0 1-2.027 2.027zm0-1.014a1.014 1.014 0 1 0-1.014-1.014 1.013 1.013 0 0 0 1.014 1.015z" class="cls-2" transform="translate(-1623.352 -891.632)"/>
    <path id="path-1538" d="M1634.6 914.944a2.027 2.027 0 1 1 2.027-2.027 2.028 2.028 0 0 1-2.027 2.027zm0-1.014a1.014 1.014 0 1 0-1.014-1.014 1.013 1.013 0 0 0 1.014 1.015z" class="cls-2" transform="translate(-1623.448 -891.632)"/>
</svg>
