<svg xmlns="http://www.w3.org/2000/svg" width="113.822" height="77.014" viewBox="0 0 113.822 77.014">
  <defs>
    <style>
      .cls-1, .cls-2 {
        fill: none;
        stroke: #000;
      }

      .cls-1 {
        stroke-width: 13.552px;
      }

      .cls-2 {
        stroke-width: 4.927px;
      }

      .cls-3 {
        fill: #cf0a2c;
      }

      .cls-4 {
        fill: #fff;
      }
    </style>
  </defs>
  <g id="advanced-flow-engineering-afe-power-vector-logo" transform="translate(-12.537 -118.737)">
    <path id="Path_128" data-name="Path 128" class="cls-1" d="M271.124,325.061c.1.065.521.472.618.537,0,0,.114.081.163.114,0,.033.065.049.065.049a1.669,1.669,0,0,0,.228.13,1.594,1.594,0,0,0,.293.114s.146.065.163.033a6.3,6.3,0,0,0,3.988-.358,14.566,14.566,0,0,0,2.083-1.025l.1-.065.1-.081a11.514,11.514,0,0,0,2.6-2.8l.049-.016.326-.667c.26-.537.456-.993.6-1.384a1.536,1.536,0,0,1,.163.163c.065.244.114.488.114.488l.016-.016c.033.114.309,1.2.309,1.2.114.358.407,1.432.407,1.432l1.449-.651-.049.83,4.118-1.4a4.19,4.19,0,0,1,.016-1.221c.114-.521.26-1.449.537-3.288a.918.918,0,0,0,.016-.114c.1-.065.2-.146.244-.179.342,1.107,1.2,4.02,1.2,4.02l.749-.391,1.156-.456s.488-.993.537-1.123c.7-.277,2.881-1.123,2.881-1.123l.13-1.139c.016-.13.033-.244.049-.374l.033.586.114.863,11.085-4.216,4.867-1.97-.1-.911s-.114-1.9-.2-3.353c.163.228.326.488.374.553a12.344,12.344,0,0,0,1.432,2.474l.374.57,4.981-1.953,1.742-.781-.911-1.449c-.358-.423-.407-.684-1.123-1.742a8.626,8.626,0,0,0-1.888-2.881c.049-.065.081-.114.13-.179l.065-.081.049-.1A9.82,9.82,0,0,0,318.718,299a4.692,4.692,0,0,0,.1-1.139s-.016-.228-.016-.391a1.86,1.86,0,0,0,.033-.407,6.358,6.358,0,0,0-.57-2.328l-.016-.033c-.57-1.139-1.921-2.23-5.144-.977,0,0-2,.9-2.035.912,0-.016-.212-1.2-.212-1.2L305.6,295.6l.016.977v.1c-1.188.456-3.174,1.367-4.737,1.856-.553.212-1.66.651-1.97.765a12.379,12.379,0,0,0-1.465.57c-.1.033-.26.1-.439.179l-4.3,1.644s-.326,2.1-.391,3.076c-.114-.374-.2-.651-.2-.651a12.708,12.708,0,0,0-.619-1.758s-1.3.374-1.677.5c0,0-.716.277-.993.391h0l-.57.228c-.147.065-1.79.7-1.79.7s-.472,2.783-.472,2.8c-.033.114-.065.228-.1.358-.049-.228-.1-.439-.146-.619-.26-1.058-.553-2.165-.667-2.051l-.57-.033M259.6,329.521l.407,1.644.781.716,4.541-1.774.651-1.27s-.065-.781-.081-1.042" transform="translate(-204.786 -143.978)"/>
    <path id="Path_129" data-name="Path 129" d="M81.15,154.08A33.075,33.075,0,1,1,48.075,121.2,32.987,32.987,0,0,1,81.15,154.08" transform="translate(0 0)"/>
    <ellipse id="Ellipse_3" data-name="Ellipse 3" class="cls-2" cx="33.075" cy="32.88" rx="33.075" ry="32.88" transform="translate(15 121.2)"/>
    <path id="Path_130" data-name="Path 130" class="cls-3" d="M51,350.52a18.393,18.393,0,0,1-2.735-8.22A55.853,55.853,0,0,0,46.2,354.931a32.824,32.824,0,0,0,4.069,5.648,31.9,31.9,0,0,0,17.5,9.978A75.448,75.448,0,0,1,51,350.52" transform="translate(-26.122 -185.111)"/>
    <path id="Path_131" data-name="Path 131" class="cls-3" d="M250.437,167.841c8.757-9.034,14.356-17.384,17.823-24.871A32.131,32.131,0,0,0,245,127.8c3.369,7.992,5.909,18.328,6.739,31.756a18.652,18.652,0,0,1-1.2,8.073Z" transform="translate(-192.563 -5.526)"/>
    <path id="Path_132" data-name="Path 132" class="cls-3" d="M236.485,231.5c-4.346,8.969-11.671,19.077-23.537,30.015a18.746,18.746,0,0,1-7.048,4.037c11.866.96,21.567-.163,29.494-2.49a32.01,32.01,0,0,0,1.091-31.561" transform="translate(-159.827 -92.346)"/>
    <path id="Path_133" data-name="Path 133" class="cls-3" d="M53.771,183.434a18.787,18.787,0,0,0-8.724.879A64.755,64.755,0,0,0,27.5,192.061,31.993,31.993,0,0,1,37.1,176.5a71.224,71.224,0,0,1,16.668,6.934" transform="translate(-10.465 -46.299)"/>
    <path id="Path_134" data-name="Path 134" class="cls-3" d="M114.153,429.793a18.626,18.626,0,0,0,4.606,1.107c14.535,2.083,26.255,1.253,35.663-1.2a32.353,32.353,0,0,1-29.234,13.184A68.306,68.306,0,0,1,110.8,428.1a17.492,17.492,0,0,0,3.353,1.693" transform="translate(-80.207 -256.946)"/>
    <path id="Path_135" data-name="Path 135" class="cls-3" d="M21.264,254.685a31.929,31.929,0,0,0,2.116,18.833A62.637,62.637,0,0,1,28,255.743l.081-.228a18.573,18.573,0,0,1,4.785-7.015,57.029,57.029,0,0,0-11.606,6.185" transform="translate(-4.766 -106.579)"/>
    <path id="Path_136" data-name="Path 136" class="cls-3" d="M118.932,126.13A32.284,32.284,0,0,0,96.6,132.885a80.014,80.014,0,0,1,22.1,10.824l.212.13.228.163a18.43,18.43,0,0,1,6.039,6.446,85.7,85.7,0,0,0-6.25-24.318" transform="translate(-68.318 -4.051)"/>
    <path id="Path_137" data-name="Path 137" d="M62,311.975a6.953,6.953,0,0,1-.879-1.123,6.456,6.456,0,0,1-.537-1.367l-1.953-6.446a8.12,8.12,0,0,0-1.237-2.376,5.461,5.461,0,0,0-2.083-1.742,6.458,6.458,0,0,0-3.467-.488,24.822,24.822,0,0,0-4.33.993,19.24,19.24,0,0,0-3.028,1.188,8.407,8.407,0,0,0-2.214,1.514,6.209,6.209,0,0,0-1.465,2.311,7.712,7.712,0,0,0-.26,2.914l.1,1.172L41.8,308.3l3.548-.684a7.217,7.217,0,0,0-3.011,2.848,5.138,5.138,0,0,0-.212,3.793,5.047,5.047,0,0,0,2.848,3.223,7.191,7.191,0,0,0,5.111.049,10.924,10.924,0,0,0,3.662-1.856,7.261,7.261,0,0,0,1.042-1.074c.13.13.26.277.439.439l.456.423.6-.179,5.274-1.6,1.611-.488Zm-13.559-6.641a3.111,3.111,0,0,1,1.432-.749,1.792,1.792,0,0,1,.846-.114l.049.049c-.358.26-.7.5-1.042.716-.293.179-.781.472-1.5.863.033-.521.146-.7.212-.765m3.89,4.818a1.867,1.867,0,0,1-.537.912,2.67,2.67,0,0,1-1.156.716,1.179,1.179,0,0,1-.732.049.4.4,0,0,1-.228-.293.373.373,0,0,1,.065-.342,5.109,5.109,0,0,1,1.53-1.172c.358-.212.7-.439,1.042-.651a2.557,2.557,0,0,1,.016.781" transform="translate(-21.361 -148.341)"/>
    <path id="Path_138" data-name="Path 138" class="cls-4" d="M58.662,314.266a3.831,3.831,0,0,1,.179,1.807,2.91,2.91,0,0,1-.814,1.449,3.781,3.781,0,0,1-1.611.993,2.136,2.136,0,0,1-1.5,0,1.5,1.5,0,0,1-.8-.944,1.448,1.448,0,0,1,.163-1.172,5.742,5.742,0,0,1,1.9-1.546c.781-.472,1.514-.96,2.214-1.465ZM53.1,310.36a3.986,3.986,0,0,1,1.937-1.074,2.336,2.336,0,0,1,1.628-.049,2.09,2.09,0,0,1,.879,1.335,20.577,20.577,0,0,1-1.79,1.27c-.57.358-1.856,1.074-3.841,2.132a6.949,6.949,0,0,0-3.141,2.7,4.288,4.288,0,0,0,2.132,5.6,6.047,6.047,0,0,0,4.362,0,9.9,9.9,0,0,0,3.288-1.66,7.6,7.6,0,0,0,1.742-2.181,8.212,8.212,0,0,0,.472.863,5.614,5.614,0,0,0,.667.732l5.274-1.6a8.677,8.677,0,0,1-1.025-1.318,7.56,7.56,0,0,1-.619-1.579l-1.953-6.446a6.656,6.656,0,0,0-1.074-2.035,4.453,4.453,0,0,0-1.66-1.416,5.387,5.387,0,0,0-2.914-.391,24.758,24.758,0,0,0-4.151.96,19.459,19.459,0,0,0-2.865,1.123,7.638,7.638,0,0,0-1.937,1.3,4.971,4.971,0,0,0-1.221,1.9,6.187,6.187,0,0,0-.2,2.49l5.55-1.074a2.392,2.392,0,0,1,.456-1.6" transform="translate(-26.832 -154.05)"/>
    <path id="Path_139" data-name="Path 139" d="M161.34,263.269l-1.009.309-6.283,1.9-1.025.309-.293-1.025-6.12-20.135-.309-1.009,1.009-.309,15.447-4.7,1.025-.309.309,1.025,1.318,4.346.309,1.009-1.025.309-8.155,2.474.439,1.465,6.8-2.083,1.025-.309.309,1.025,1.237,4.069.309,1.025-1.025.309-6.8,2.067,2.2,7.211Z" transform="translate(-109.928 -98.04)"/>
    <path id="Path_140" data-name="Path 140" class="cls-4" d="M154.4,251.188l15.447-4.688,1.318,4.346L162,253.629l1.058,3.483,7.813-2.376,1.237,4.069-7.813,2.376,2.507,8.236-6.283,1.9Z" transform="translate(-116.71 -104.905)"/>
    <path id="Path_141" data-name="Path 141" d="M285.333,247.532a11.784,11.784,0,0,1-5.323.6,8.155,8.155,0,0,1-4.1-2,9.2,9.2,0,0,1-2.686-4.346,8.71,8.71,0,0,1,.618-7.048,9.848,9.848,0,0,1,6.071-4.46,12.763,12.763,0,0,1,5.778-.6,7.864,7.864,0,0,1,4.183,2.2,11.292,11.292,0,0,1,2.637,4.834l.2.635.309,1.009-1.009.309-1.351.407,1.188-.244,1.628-.326-.374,1.611a9.329,9.329,0,0,1-2.409,4.606,12.68,12.68,0,0,1-5.355,2.816m-3.369-5.811a1.147,1.147,0,0,0,.309.26,1.789,1.789,0,0,0,1.579.179,2.331,2.331,0,0,0,1.009-.619,2.974,2.974,0,0,0,.472-.83ZM280.515,237l3.076-.928a1.771,1.771,0,0,0-.521-.472,1.688,1.688,0,0,0-1.3-.065,1.635,1.635,0,0,0-1.156,1.074,1.137,1.137,0,0,0-.1.391" transform="translate(-215.805 -90.718)"/>
    <path id="Path_142" data-name="Path 142" class="cls-4" d="M285.051,243.907a3.941,3.941,0,0,1,.049-2.165,2.919,2.919,0,0,1,3.939-1.6,3.918,3.918,0,0,1,1.6,2.051Zm11.931-1.384a10.576,10.576,0,0,0-2.376-4.395,6.686,6.686,0,0,0-3.613-1.9,11.5,11.5,0,0,0-5.274.57,8.824,8.824,0,0,0-5.453,3.972,7.653,7.653,0,0,0-.521,6.218,8.158,8.158,0,0,0,2.376,3.858,7.084,7.084,0,0,0,3.565,1.758,11.119,11.119,0,0,0,4.851-.57,11.911,11.911,0,0,0,4.883-2.523,8.357,8.357,0,0,0,2.116-4.1l-5.681,1.156a4.06,4.06,0,0,1-.716,1.237,3.477,3.477,0,0,1-1.465.911,2.853,2.853,0,0,1-2.442-.293,3.76,3.76,0,0,1-1.351-1.79l11.313-3.434Z" transform="translate(-221.301 -96.208)"/>
    <path id="Path_143" data-name="Path 143" class="cls-3" d="M258.162,329.5l.146.016s-.065-.081-.081-.1c0,.016-.065.081-.065.081m3.467-6.592-.049.065s.049-.033.049-.049c.016,0,.016,0,0-.016m-.749-1.253a.341.341,0,0,1-.065.1c.016-.016.065-.065.065-.1h0m-.309,1.384-.016.033h.13a.225.225,0,0,1-.065-.049.071.071,0,0,0-.049.016m.439-.179h0a1.065,1.065,0,0,0-.13.212c.391,0,.635,0,.8.016-.081-.065-.228-.163-.439-.309a1.517,1.517,0,0,0-.228.081m.667-.651h0a.057.057,0,0,0-.033.016s.033,0,.033-.016h0m.439.57.016.033.033-.163a.425.425,0,0,1-.049.13M257.8,329.1l.1.1a.551.551,0,0,1-.049-.13c-.016-.016-.049.033-.049.033m3.939-6.023h0m.277-.374.065.065c-.016-.049-.016-.1-.033-.13,0,.016-.016.033-.033.065m-.228.374h.13a.965.965,0,0,0-.016-.179c-.033.049-.1.163-.114.179m.26-.488a.5.5,0,0,0-.033-.114.757.757,0,0,1-.147.049c0,.016,0,.016-.016.016l.114.114a.355.355,0,0,0,.081-.065m-3.093.944a.238.238,0,0,0,.065.033.026.026,0,1,0,.016.049l.016-.016.033.016v.033h0v-.065l.016.016a.7.7,0,0,1-.016-.081l.033-.033a.05.05,0,0,0-.033.016v0a.349.349,0,0,1-.016-.1.355.355,0,0,1,.016.1h0a1.2,1.2,0,0,0-.13.033m-.049-1.123h0a1.216,1.216,0,0,0,.033.179.557.557,0,0,0-.033-.179Zm1.449.114c0,.016-.033.212-.033.212l.033-.033a.584.584,0,0,1,0-.179Zm.57-.911c0-.016.049-.065.049-.065v-.016a.057.057,0,0,1-.033.016c0,.033-.016.049-.016.065h0m-1.221.8s.146-.065.244-.1c-.1-.016-.13-.033-.212-.049,0,.016-.033.146-.033.146m-.8-.081h0v0m-.96.326a.234.234,0,0,0-.033.049l-.309.521a2.408,2.408,0,0,1,.016.26c.081-.13.163-.277.2-.326a3.644,3.644,0,0,0,.13-.5h0m.716.163a.679.679,0,0,1,.1-.033h.016s-.065,0-.065-.016c-.016,0-.049.049-.049.049m-.765.228.016-.033-.049.016.033.016m-.049-.407h-.033l.049.049a.164.164,0,0,1-.016-.049m.293-.7-.049.016.033.016c-.016-.016.016-.033.016-.033m.618.163-.033-.016.049.163c.016,0,0-.065-.016-.146m-.8.977.016-.049-.016.049h0m-.439-1.253.065-.081a.733.733,0,0,1-.033-.13Zm3.011-.391a1,1,0,0,0-.1-.065c0-.081.016-.309.016-.309l-.114.635c0-.016.146-.2.2-.26m.407.13a.126.126,0,0,1-.049.016h0c.016,0,.033-.016.049-.016m14.714.83.13-.049s-.065-.049-.065-.065a.707.707,0,0,1-.065.114m-7.5-2.832s.016-.081.033-.13v-.13Zm.016.147c.016.049.033.114.033.114a1.077,1.077,0,0,0-.016-.179c0,.016,0,.016-.016.065m.114-.651a.706.706,0,0,1,.016-.081l-.033.081Zm15.089-5.306.016-.033-.049.016Zm.163-1.156.033-.049-.033-.016Zm.879-.407-.033.049.033.016Zm3.532,2.6v0m-.912.716.016-.049-.016-.016Zm-3.744-.26.049-.016-.033-.016c.016,0-.016.033-.016.033m.391-1.856a.17.17,0,0,1,.065.049.591.591,0,0,1,.065-.081s-.081-.016-.1-.016a.125.125,0,0,0-.033.049m-.244.407a.233.233,0,0,1,.049.033.286.286,0,0,1,.065-.081c-.016,0-.033-.033-.049-.033a.144.144,0,0,0-.065.081m33.254-7.081c-.358-.423-.407-.684-1.123-1.742a8.626,8.626,0,0,0-1.888-2.881c.049-.065.081-.114.13-.179l.065-.081.049-.1A9.821,9.821,0,0,0,315.067,299a4.693,4.693,0,0,0,.1-1.139s-.016-.228-.016-.391a4.058,4.058,0,0,0,.033-.407,6.358,6.358,0,0,0-.57-2.328l-.016-.033c-.57-1.139-1.921-2.23-5.144-.977,0,0-2,.9-2.035.912,0-.016-.212-1.2-.212-1.2l-5.257,2.165v1.074c-1.188.456-3.174,1.367-4.737,1.856-.553.212-1.66.651-1.97.765a12.383,12.383,0,0,0-1.465.57c-.1.033-.26.1-.439.179l-4.313,1.644s-.326,2.1-.391,3.076c-.114-.374-.2-.651-.2-.651a12.708,12.708,0,0,0-.619-1.758s-1.3.374-1.677.5c0,0-.716.277-.993.391h0l-.57.228c-.163.065-1.79.7-1.79.7s-.472,2.783-.472,2.8c-.033.114-.065.228-.1.358-.049-.228-.1-.439-.146-.619-.26-1.058-.553-2.165-.667-2.051l-.879.407-3.451,1.351-.374.716a2.411,2.411,0,0,0-.732-.179l-.44-.016-.423.358-.033.033c-.081,0-.228-.016-.228-.016l-.13.049c.016-.016-3.174,1.172-3.174,1.172a11.053,11.053,0,0,0-2.442,1.53l-.114.1-.9.977-.033.049a12.188,12.188,0,0,0-1.139,1.677,3.648,3.648,0,0,0-.863-.8l-.081-.065-.1-.033a4.664,4.664,0,0,0-3.174.163L259.5,313.39l-3.4,1.335s-.163.342-.244.521c-.146-.033-.423-.1-.423-.1s.033.456.049.863c-.146.293-.277.586-.277.586s.163.163.342.326c.016.179.13,2.067.13,2.067s.033.146.033.179l-.016.033s.033.553.033.57l.033.586c-.1.179-.212.374-.212.374l.26.423c0,.081.6,10.059.6,10.059l.781.716,4.541-1.774.651-1.27s-.13-2.246-.2-3.3c.016-.033.163-.309.2-.391l.6-.228a.418.418,0,0,0,.033-.081l.765-.293s-.016-.407-.049-.781a11.969,11.969,0,0,0,1.384-.83l.1-.065.081-.081q.317-.293.586-.586a5.658,5.658,0,0,0,2.23,3.418s.114.081.163.114c0,.033.065.049.065.049a.789.789,0,0,0,.277.114,2.892,2.892,0,0,1,.26.13s.13.049.147.033a6.3,6.3,0,0,0,3.988-.358,14.574,14.574,0,0,0,2.083-1.025l.1-.065.1-.081a11.515,11.515,0,0,0,2.6-2.8l.049-.016.326-.667c.26-.537.456-.993.6-1.384a1.541,1.541,0,0,1,.163.163c.065.244.114.488.114.488l.016-.016c.033.114.309,1.2.309,1.2.114.358.407,1.432.407,1.432l1.449-.651-.049.83,4.118-1.4a4.191,4.191,0,0,1,.016-1.221c.114-.521.26-1.449.537-3.288a.918.918,0,0,0,.016-.114,2.408,2.408,0,0,0,.244-.179c.342,1.107,1.2,4.02,1.2,4.02l.749-.391,1.156-.456s.488-.993.537-1.123c.7-.277,2.881-1.123,2.881-1.123l.13-1.139c.016-.13.033-.244.049-.374l.033.586.114.863,11.085-4.216,4.867-1.97-.1-.912s-.114-1.9-.212-3.353c.163.228.326.488.374.553a12.348,12.348,0,0,0,1.432,2.474l.374.57,4.981-1.953,1.742-.781Zm-55.96,14.845h0m-4.395.6c.016-.033.065-.1.1-.163a1.1,1.1,0,0,1,.065.244,1.5,1.5,0,0,1-.163-.081m3.19,4.672h0m.472-3.044Zm-.114-.651c-.016.016-.065.1-.1.13l-.016-.016a1.061,1.061,0,0,0,.033-.179h.13c.016-.016-.033.049-.049.065.016-.016,0-.065,0-.065Zm.016-.277a.016.016,0,0,1,.016-.016l-.016.016h0m-.6-.277h0a.707.707,0,0,0-.016-.081h0a.177.177,0,0,1,.016.081m-1.432,2.588h0a.543.543,0,0,1,.1-.049v.114c0-.016-.081-.049-.1-.065m12.436-6.039h0l.033-.179v-.114a.509.509,0,0,0,.065.1,2.182,2.182,0,0,0-.1.2m6.576,1.481v.033s.016-.033,0-.033l.049-.049c-.065.228-.1.391-.147.537,0-.081-.016-.212-.016-.342h0v-.049a.609.609,0,0,0,.114-.1m-1.6-.342c-.016-.016-.033-.016-.049-.049h0c.016.033.033.033.049.049m-.635.944h0c0-.033.065-.114.081-.147,0,.065-.016.1-.016.179a.232.232,0,0,0-.065-.033m.049.049Zm7.976-2.848c.049-.049.081-.1.13-.147a.125.125,0,0,1,.049.033v.016l-.033.016s.114.13.146.163a1.657,1.657,0,0,0-.293-.081M288.828,315h0m-.667-4.509c0,.081-.016.212-.016.26a.538.538,0,0,1-.1-.049c.049-.1.049-.1.114-.212m-2.3,5.664a.274.274,0,0,0,.081-.033c.033.114.081.277.081.277a2.125,2.125,0,0,0-.163-.244m6.478-7.65.065-.065-.065.065m.879-.944c-.016,0-.033-.016-.049-.033a3.074,3.074,0,0,0,.1-.293.962.962,0,0,1,.065-.13,1.571,1.571,0,0,1-.033.2,2.319,2.319,0,0,1-.081.26" transform="translate(-201.103 -143.978)"/>
    <path id="Path_144" data-name="Path 144" class="cls-4" d="M265.632,416.07l4.069-1.6.016.146c-.13.049-.179.114-.179.2v.13l.049.033v.065l-.049.016-.146-.016.033.456.033-.081.049-.016.065.179-.114.635.1.1-.081.163.033.651.033-.016c.065-.033.1-.13.081-.309l.1-.033a.655.655,0,0,1-.212.537.328.328,0,0,1-.212.358l.049.781-.033.407.065.179-.146.049.016.13.146-.049.114,1.807-.977.391.2.179.619-.244.033-.081.049.033.277-.114-.016-.326.423-.163v.13c.065-.033.1.033.114.163l.326-.13.049.049.049-.016-.049.081v.065l.1.163.016.309.1-.033-.049-.179.033-.081V421.1l-.114-.293a.548.548,0,0,1,.358-.6,2.064,2.064,0,0,0,1.074-1.888l-.016-.26-.146-.749.065-.488-.146-.065-.065.423c-.081.033-.13-.033-.146-.212l-.049.081-.1.033c-.228-.13-.635-.081-1.237.146l-.228.1-.2-.065.13-.326-.114-.081.081-.228v-.065l-.13-.358a2.11,2.11,0,0,0,.049-.749l-.033-.651-.081-.439,1.872-.732a3.657,3.657,0,0,1,2.523-.114,3.477,3.477,0,0,1,1.416,2.946l.033.391a6.127,6.127,0,0,1-2.035,5.095,11.264,11.264,0,0,1-2.263,1.221l.049.7-.049.016c-.065.033-.13-.2-.179-.651l-.049.016.016.13.13.537-.033.081-1.074.423-.114-.081.147-.781-.049.081-.228.1-.049-.049c-.163.065-.309.326-.439.765v.065l.146-.065-.016-.26c.13.033.212.26.228.7l.049-.016a.712.712,0,0,1,.163-.456l.049-.016.147.667-.049.081-.326.13.228,3.744-.081.163-2.946,1.156h-.2l-.179.147-.1.033-.1-.1-.586-9.62.1-.033.081.488.049-.016-.016-.13a1.057,1.057,0,0,0-.228-.57l.13-.244.1-.033a7.821,7.821,0,0,1,.537,1.709l.049-.016V421.9l-.488-1.725.553-.472v-.065l-.049.016-.765.7-.049-.049-.049-.912.081-.163.2.846.049-.016v-.065l-.2-.912,1.042-1.009.342.993-.537.488v.065l.1-.033.5-.456a4.243,4.243,0,0,1,.667,1.66l.049-.016-.016-.13a6.409,6.409,0,0,0-.667-1.6l.049-.081c-.081.033-.228-.293-.439-.96v-.065l.049-.016.7.651c0,.081-.081.179-.26.293v.065l.049-.016.374-.277.049.049-.049-.911-.358-.374v-.13c.212-.179.309-.309.309-.391l-.049.016c-.163.244-.293.391-.407.423-.7-.521-1.058-.83-1.058-.911l-.016-.326-.049.016.016.326c-.212.081-.439-.016-.684-.26Zm-.033,1.123c.781.179,1.172.472,1.2.863,0,.1-.342.456-1.042,1.058l-.081-.439Zm.5,4.444v.065l.13.537.049-.016v-.065l-.13-.537Zm.6,8.431.016.26.049-.016.033-.277Zm.081-5.86.016.179.065.244.033-.016v-.065l-.065-.374Zm.228-.944v.13l.049.179.049-.016v-.065l-.065-.244Zm.456,5.111v.065l.049.033v.065l-.065.374.179-.277-.016-.26Zm.081-.228v.065l.114.081v-.065Zm-.049-6.4.016.26.1-.033.033-.212-.049-.033Zm.2,1.709-.065.488.081.553-.049.081.049.049-.049.081.1-.033.081-.163-.114-.407.13-.244-.049.016.033-.081v-.13l-.1.033v-.13l.049-.081v-.065Zm-.016,1.335.033.456.147-.049v-.065c-.065-.26-.114-.374-.179-.342m.456,1.2a3.717,3.717,0,0,1-.228.944c.049.179.13.277.244.309l.049-.016.277-.846v-.065l-.1-.081-.049.081-.049-.033.033-.081-.016-.26Zm-.244-1.025.049.179.146-.049-.049-.846c-.1.033-.146.26-.146.716m.065-1.091-.065.423c.065-.033.114-.146.114-.374v-.065Zm.293-5.6.016.2.1-.033-.016-.2Zm.407.439-.065.423v.13c0,.1.2.114.586.033l-.016-.309.049-.081v-.065c-.1.033-.147-.033-.163-.2l-.049.081-.049.016-.293-.081Zm.081,2.881v.065l.065.179.049-.016v-.065l-.049-.179Zm.163.326v.065l.065.163.049-.016v-.065l-.049-.179Zm.374.781v.13l.228.57.049-.016v-.13l-.228-.586Zm.342.863.016.26.13-.26v-.065Zm-.342-8.073.016.26.049-.016-.016-.26Zm.6,7.7.1-.033.065-.488c-.049.016-.114.2-.163.521m.488-.521-.033.212v.065l.049-.016.033-.212v-.065Zm.114-1.5-.114.374.016.326.033-.016.114-.635v-.065Zm.065.439c.016.163-.033.277-.13.309l.016.2.049-.081.049-.016.049.049.065-.358Zm-.016.537.016.179.1-.163v-.065Zm1.6-6.25-.016.537.049-.016.049.049.049-.016.049-.081v-.065l-.114-.163.033-.212-.049-.049Zm.928,4.476-.065.358v.065l.049-.016.065-.358v-.065Zm-.212-6.006-.081.293.146.081-.016-.13.049-.016-.065-.244Zm.358-.472v.065l.081-.163v-.065Z" transform="translate(-209.81 -244.59)"/>
    <path id="Path_145" data-name="Path 145" class="cls-4" d="M331.634,385.981l3.19-1.172.13-.049c.065-.016.1.2.13.651l.049-.016-.033.081.049.83.065.293c.1-.033.13-.244.1-.619l.179-.13-.049-.049v-.13l.081-.147.049.033.049-.081v-.065l-.1-.8.13-.114a2.941,2.941,0,0,1,1.693,1.009l.1,1.644.049-.016-.1-1.514.1-.033.147.26.081,1.318a.171.171,0,0,1-.13.179l.5,1.351-.033.212.1-.033.179,1.416.049.944a6.732,6.732,0,0,1-.277,3.011l-.1.033-.049-.049-.049.016c0,.13-.016.2-.081.228-.016-.163-.114-.2-.342-.114l-.049.016.016.179-.081.033-.163-.439-.016-.13-.049.016c.016.163-.016.26-.081.277l-.326.13-.147-.065-.13.049.065.293v.065l-.049.016-.1-.1-.016-.13.033-.081v-.065l-.13.049-.033.2.049.049v.065l-.033.26.358-.146.57.1.26-.163.049.033.033-.016a.433.433,0,0,0,.212-.407l.1.1v.13l-.033.2.049-.016.049.049.049-.016a8.995,8.995,0,0,1-.732,1.839l-.049.016-.049-.033-.049.016c.033.553-.749,1.514-2.344,2.848a10.923,10.923,0,0,1-1.856.912,5.265,5.265,0,0,1-3.516.277v-.13l1.774-2.946.049-.016.081.684.049-.016-.016-.391-.081-.423.179-.26a2.061,2.061,0,0,0,1.156-.065l.326-.13.684-.342.016.309.049-.016c-.016-.374.081-.6.326-.7l.684-1.172a1.2,1.2,0,0,1,.8.016l.049-.016c0-.212.033-.342.114-.374l.146.13-.065.472-.1.033-.016-.13-.049.016.016.391q0,.2.244.1l-.016.326.065.293-.065.293v.065l.049-.016v-.13l.1-.033v.13l-.049.081v.065l.049.033.049-.016.049-.081-.049-.049.033-.342-.081-.6c-.016-.293,0-.456.065-.472l-.049-.049v-.13l.033-.081.13-.114v-.065l-.049-.163.081-.163-.065-.163-.13.179-.1-.1.049-.081c-.065.033-.13-.065-.163-.26l.1-.033v-.065l-.065-.293-.049.016.016.13-.081.033v-.065l.065-.277-.065-.488.033-.277-.1-.146-.146.114v-.065l-.049-.049v-.065l.033-.081.049-.016v.114l.049-.016c-.016-.163.033-.26.114-.293l-.049-.814-.163-.521.081-.293a3.074,3.074,0,0,1-.2-.944l.049-.016-.049-.049v-.065l.065-.472-.1.033q-.024-.2-.1-.147v-.13l.1-.033-.049-.033-.016-.13.1-.033v-.13c0-.081-.065-.1-.179-.065v-.065c.114-.049.179-.114.163-.2l-.326.13.049.049v.065l-.065.407.1.1.016.309-.049.081.049.033.016.26-.081.163.049.049.016.179-.016.277.114.391-.049.016.049.049-.065.6.179,1.286-.049.081.081.423.033.57.065.293-.049.016.049.049.016.309-.049.016c-.212.081-.342.033-.374-.163l-.049.081-.1.033a7.875,7.875,0,0,0,.081-1.774l-.065-1.009a4.937,4.937,0,0,0-.635-2.2l.5-.2-.13-.537.033-.212c-.521-.342-.879-.472-1.107-.407v.065l.065.228-.049.016.049.033c-.016.358-.049.537-.1.57-.309.114-.472-.081-.5-.586l-.016-.26.033-.212-.1.033v-.065c0-.212.016-.326.065-.358l-.049-.049v-.13l.081-.033v-.065l-.1-.228c.081-.033.13-.179.114-.423l.049-.016c-.049-.244-.1-.358-.163-.326l-.228.081.033.439.065.293-.016.407.033.553-.1.033v.13l.1-.033.033.635-.033.081v.065l-.423.1a3.27,3.27,0,0,0-1.677,1.546l-.1-.1v-.065l.049-.081v-.065l-.13.049c0,.13-.016.2-.081.228l.114.407a6.408,6.408,0,0,0-.309,2.507l.049.814-.033.081.049.049.033.57a3.871,3.871,0,0,0,.716,1.839v.065c-.912,1.6-1.628,2.751-2.116,3.467-1.3-.879-2-2.425-2.149-4.639l-.016-.179.033-.016c.342-.1.5-.1.521-.016l.13-.13-.016-.114c-.212.016-.326-.016-.342-.13l-.016-.179.049-.081v-.065l-.179.016-.13.244v.065l-.1.033-.016-.374a9.524,9.524,0,0,1,2.149-6.771l.749-.814a14.432,14.432,0,0,1,2.051-1.188m-4.265,9,.065.358.1-.033.081-.163v-.13l-.1-.1Zm.277.537.1.1.1-.033-.016-.179Zm.439-.488v.065l.1.081.033-.081v-.13Zm.928-.033.016.391.049-.081.049-.016.049.049v.065l-.033.212.13-.049.049.049.033-.081.033-.26-.065-.244.033-.081Zm.472.081v.065l.2.065-.065.358.277-.049-.179-.57Zm.049-6.788.016.374a.731.731,0,0,0,.26.488v.049l-.081.228v.065c.081.342.163.5.26.472l.081-.163-.1-.081.049-.016-.049-.049v-.13l.1-.033.163.456-.081.147.049.049.049-.016-.033.081.016.309.146.016.033-.407-.081-.423.081-.146-.033-.439-.049.016.016.244-.049.016a4.89,4.89,0,0,1-.667-1.091l-.049-.049Zm2.6-.065.016.244.049-.016-.016-.244Zm1.449,9.245.033.439.049-.016-.033-.439Zm.163-8.838.1.1-.033.081v.13l.1-.033.016.309-.049.016q-.342-.146-.342-.244c.016-.2.081-.309.212-.358m1.725,5.583.049.033v.065c-.065.016-.081.1-.081.228l-.049-.049-.049.016c.049-.179.1-.277.13-.293m-.1.488.049-.016.1.1-.033.081-.049.016-.049-.033Zm.244,2.49.016.179.1-.033.033-.212Zm.016-.212v.065l.146-.049v-.13Zm-.212-9.913a.283.283,0,0,1-.163.326q0,.2.244.1l.016.26.049-.016.033-.326-.016-.2Zm-.13.83v.065l.049-.016.033-.277c-.065.033-.1.1-.081.228m.147.326-.114.374.016.244c.1-.033.13-.13.114-.293l.1-.033.016.2.049-.016v-.13l.049-.081-.049-.049c-.065.016-.1-.049-.1-.212Zm.57,9.392v.065l.1.1-.016-.179Zm-.488-9.734-.033.212h.13v-.13Zm.684-.016-.033.277.163.391.13-.13v.13l.456-.179.1.1.049.879.049-.016-.016-1.025.179-.065-.049-.765-.13.049-.033.081-.049-.049Zm.944,5.437.033.5.049-.016-.033-.5Zm-.016-3.418.1,1.514.033-.016-.081-1.514Z" transform="translate(-260.934 -220.443)"/>
    <path id="Path_146" data-name="Path 146" class="cls-4" d="M394.114,347.736,397,346.613A23.394,23.394,0,0,1,398,350.748c-.1.049-.2.456-.26,1.221l.049.049.147-.049.033-.212-.016-.13-.049-.163.13-.049-.1-.1.033-.212.1-.033.5,2.165-.049.081-.407.163-.146-.081-.081.163-.7.277v-.065l.033-.277-.065-.179.1-.033v.13a1.522,1.522,0,0,0,.326-.912l-.13-.472-.049.016a1,1,0,0,1-.342.716,3.515,3.515,0,0,0-.326,1.058.693.693,0,0,0-.309.309l-.977.374c-.13.049-.586-1.628-1.351-5.046l-.1-1.546Zm1.318,6.853.977-.374v.065l-.667,1.514-.049.016Zm5.6-9.538.049-.016.1.1.016.179.114,1.074.1-.033.033-.212-.049-.049v-.065a.452.452,0,0,1,.163-.326l.049.033v.065l-.1.163.13.342-.049.081v.065l.065.179-.049.016.049.033v.065c-.033.228-.065.342-.13.374a.817.817,0,0,1-.179-.521l-.1.033.081.619-.033.326.13.667-.033.081v.065l.049.049-.033.081.016.326.049-.016a5.307,5.307,0,0,0,.358-1.188l-.081-.5.016-.586-.049-.049.016-.342-.016-.26-.065-.423-.13.179-.114-.228-.016-.26.049-.016.049.049c.13-.049.2-.212.212-.472l1.628-.635a33.463,33.463,0,0,1,1.286,3.972l1.009,3.272.033-.016.407-5.03.049-.016.391.179.049-.016-.016-.26.016-.472-.391-.309a13.45,13.45,0,0,1,.277-2.539l3.207-1.253.049.049.049-.016c-.374,3.695-.6,5.583-.651,5.648l-.1.033v.13l.1.1-.293,2.344-.1.033-.049-.049-.13.13.016.309a.2.2,0,0,0,.13-.244l.049-.016.016.26-.1.033v.065l.1-.033v.065c.016.374-.212,2.572-.7,6.576l-2.507.977-.1-.1.1-.033-.016-.13-.1.033.081-.163-.049-.049v-.065l.033-.081-.016-.13-.033.016v.13l-.049.016-.049-.049-.049.016.065.309.016.2-.081.163-.277.114.049.765-.081.179-.277.114a24.786,24.786,0,0,1-1.156-3.434l.179-.146-.13-.537.081-.163V354.9c-.13.049-.212-.033-.26-.228l.033-.212-.049.016.065-.553-.13.049-.049.081-.033.016-1.188-3.874-.081.033a51.712,51.712,0,0,1-.863,5.534l-.83.326.065.228-.081.358-.1.033-.065-.358.033-.212-1.677.651.033.635c.016.147-.391.472-1.221.944a3.411,3.411,0,0,1-.765.635l-.049-.049.7-2.572a15.845,15.845,0,0,0-.667,2.3l-.1.033-.521-2.23,1.221-2.637.651-.26.049.049.049-.016-.146.651v.065l.049-.016a1.683,1.683,0,0,1,.244-.814l.5-.2c.1-.033.163.179.179.651l.1-.033q.024-.732.146-.781l.326-.13.146.065-.016-.326-.13.179-.277.114-.049-.049-.049.016.651-4.2a7.564,7.564,0,0,1,.309-1.758l.146-.049.049.049.049-.016.488-1.172-.049-.049v-.065c.016-.309.049-.488.114-.5l.049-.016.016.13-.081.293v.065l.049-.016a5.315,5.315,0,0,1,.374-.651m-.26,11.524.049.033.049-.016-.033.081v.065l.1.163-.732.553-.049-.049-.2.619c.1-.033.147.016.147.13l.228-.016a.744.744,0,0,0,.114-.439l.049-.016c.065-.033.1.033.114.146l.033-.081.049-.016.049.049.358-.277.049.049c-.326,2.165-.5,3.288-.553,3.369l-1.709.667-.1-.1-.049-.749-1.579.619a6.213,6.213,0,0,1-.472-1.6,17,17,0,0,1,1.9-1.4l-.033-.456.081-.163,1.009-.391-.016-.2.1-.033.016.2.033-.081.049.033.049-.016.179-.2v.13l.6-.228.033-.212-.049-.049.049-.081Zm-3.158-1.921-.374,1.6v.065l.049-.016.374-1.6v-.065Zm-.114-2.718V352h.13v-.049l-.049-.179Zm1.107,6.592.049.7a7.4,7.4,0,0,0,1.318-1.042l.049.049v-.13c-.081.033-.13-.033-.163-.2l.049-.016-.065-.179Zm.96-4.7.016.26.049-.016-.016-.26Zm.065.293.016.2.065.358.049-.016v-.13l-.065-.439Zm.016-1.253v.065l.374-.146v-.065Zm.179,2.165.016.26.049-.016-.016-.26Zm.065.374.016.26.049-.016-.016-.26Zm.309-2.751v.065l.928-.358v-.065Zm-.1-7.243.277-.114.1.081-.13.244-.016-.13-.049.016a1.821,1.821,0,0,0-.309,1.172l-.1.033v-.065a3.9,3.9,0,0,1,.228-1.237m1.5,6.039.016.26.049-.016-.016-.26Zm-.244-6.527.1-.033.016.2-.1.033Zm2.621,10.4-.033.212.147-.049-.016-.2Zm.342-.521-.049.081.065.228.13-.114-.016-.26-.033.081-.049.016Zm.228.439-.033.212.049-.016.081-.163v-.065Zm.033-4.753.228,1.416-.033.081v.065l.147.8c-.244.179-.358.309-.358.407l.065.244-.033.212.049-.016h.147l.13-.114c.1.342.2.521.277.553l-.033.342.016.13.049.033v.065l-.049.081-.049.016.049.049v.065l-.033.081.049.049.016.2-.033.277.244.83-.1.033v-.13l-.049.016.033.521.049-.016c.114-.488.228-.749.326-.8l-.049-.83-.1-.1.033-.456v-.065l-.13-1.253c.179-.147.277-.277.26-.374l.049-.016.049.049.049-.016a1.4,1.4,0,0,0,.146-.781l-.049.016c-.1.033-.13.179-.114.439l-.1.033-.016-.26-.049.016-.033.081-.081-.049-.033.016-.146.13-.049-.049v-.065l-.179-1.384.049-.016-.065-.309-.049.016-.13.179-.016-.2-.033.081-.049.016-.146-.732c-.065.016-.081.147-.065.358Zm-.033-.781.016.26.1-.033v-.065l-.065-.179Zm.8,7.113-.016.537.1-.033c.065-.033.081-.1.081-.228l-.114-.293Zm.277-4.313.049-.016v.065l-.081.163-.049.016v-.065Zm2.474-2.018-.049-.049.016.2-.049.016v-.13l-.179.065-.1.163.016.326-.1.033-.016-.2.049-.081v-.065l-.1.033-.13.244-.049-.049-.1.033-.081.163.146.016.016.2c-.163.016-.228-.033-.244-.163-.309.179-.456.326-.456.439l.049.049.033-.081.1-.033.016.13c-.065.033-.13.179-.163.456l.049-.016.179-.2.049.049.049-.016a5.726,5.726,0,0,1,1.221-.993v-.065c-.114.049-.179.016-.2-.13l-.016-.179.146-.049.016.26.049-.016c.065-.016.081-.1.081-.228l-.049-.163.081-.163-.1.033Zm-1.27-4.492.049.049v.065l-.049.081v.065l.147.13.033.456c.081-.033.228.049.439.228.033-.2.081-.293.13-.309l.049-.016-.016.342q.488.464.684.391v-.065l.114-.5-.2.081.016.26-.13.049v-.13l-.049.016.033-.342v-.13a3.847,3.847,0,0,0-1.253-.716m.309.407.1-.033.016.326-.1.033Zm.309.277.1-.033v.065l-.081.163Zm.911.9v.065l.1-.033-.016-.2Zm.114-.439v.13h.2v.13c-.081.033-.13.163-.114.358l.147.081c.065-.016.081-.114.081-.293.13-.049.179-.114.179-.2v-.065q-.147.049-.147-.146c-.13.049-.2.016-.2-.114Z" transform="translate(-317.31 -184.525)"/>
    <path id="Path_147" data-name="Path 147" class="cls-4" d="M490.416,323.9l1.709-.667.081.374-.228.212v.065l.146.277.033-.081.049-.016-.065-.309.049-.081v-.065l.049.049.1-.033-.016-.26.049-.016.1.1-.114.309v.065l.049-.016c.1-.033.179-.293.228-.749l2.669-1.042.1.1.081,1.3.049-.016.1-.7-.065-.179.1-.033-.016-.391.049.049.049-.016V322l-.1.033.081-.163c.065-.033.1.033.1.163l.049.049.049-.016-.016.342v.065l.228-.163-.163-.456.033-.081.537-.212v.065l-.033.081c.065.374.114.553.179.537l.049-.016-.049-.049-.016-.2.049-.016c.13,0,.2.1.212.326l.049-.016.033-.293c-.016-.212-.1-.293-.244-.228l-.016-.13.081-.163,2.718-1.058.1.1.179,2.995-2.669,1.042-.049-.049-.049.016-.049.081-.065-.309-.13.179v-.065l.081-.179-.049-.033v-.13l.081-.179.049.049v.065l-.033.212.179-.13-.1-.7.016-.537-.179.212.049.049v.13l-.065.049.049.049v.065a1.2,1.2,0,0,1-.277.765l.049.049v.065l-.1.5.016.326-.081.033a.343.343,0,0,0-.244-.309l-.049.016.358.391v.13l-.684.26-.1-.1-.033-.521-1.758.684.13,2.279,1.53-.6.049.049.049-.016-.033.342.13.488a.527.527,0,0,1,.309-.391l-.016-.13-.049-.049v-.065c.065-.033.081-.13.081-.309l.033-.081.049-.016.146.081a.386.386,0,0,1,.26-.309l.049-.016.1.1-.033.081.049.049.033.456-.033.081a2.807,2.807,0,0,1,.147,1.009l.049-.016.033-.277c.081-.033.13.016.146.13l.049-.016c.065-.033.1-.179.114-.439l-.049.016c-.065.016-.13-.065-.2-.26.033-.228.065-.358.114-.374l.1.1-.049-.716.081-.163.13-.049.911-.293c.016.212.081.293.2.26l-.1-.163c0-.13.146-.26.488-.391l.456-.179.1.1.114,1.758-.179.065-.049-.049-.049.016.049-.081v-.13l-.1.033-.016-.326c-.13-.26-.244-.407-.342-.391l-.114.57.2.8.033-.065.049-.016.553.716-.081.1-2.132.83-.1-.1v-.13l.049-.081-.114-.423.033-.081-.1.033-.016.342.065.244-.049.016.049.049v.065l-.081.163-.146-.081c0,.1-.049.163-.179.212l.033.521-.081.163-.635.244c-.065.016-.1-.212-.13-.684l-.049.081-1.709.667.179,2.848,1.4-.553v.065a17.95,17.95,0,0,1-1.611,2.555A21.7,21.7,0,0,0,496,333.405l.163-.2,4.2-1.644.1.1.114,1.888-.033.081.049.049.065,1.042-.081.163-2.49.977-.13-.016-.228.163-4.118,1.6c-.081.033-.147-.1-.212-.374l.8-1.172-.049.016a4.44,4.44,0,0,1-.765,1.042c-.065.016-.179-.423-.358-1.318l.13-1.774-.016-.13-.033.016-.1,1.644-.081.033-.846-3.141-.1.033v-.065l.1-.033a6.433,6.433,0,0,0-.423-1.5l.049-.081c-.179-.765-.293-1.139-.358-1.123v.065l.065.374-.033.212.065.163-.081.228.049.049-.1.57.016.13c.081-.033.13-.016.146.081l-.033.081-.033.016a15.125,15.125,0,0,0,.716,2.637l.13-.244-.049-.049v-.065l.081-.163.081.374-.26.228.9,3.5-1.677.651-.1-.1-.586-9.62.1-.033.016.13.081-.033.033-.342-.065-.309-.033.016c0,.13-.016.212-.081.228l-.016-.13a1.73,1.73,0,0,0,.081-.83v-.065l-.049-.049v-.065l.228-.212v-.13l-.1.033v-.065l.13-.309-.049-.049v-.065l.033-.2-.244.488a9.16,9.16,0,0,1-.244-1.693l.016-.342-.065-.374-.016-.326Zm.342,5.046.016.2.049.179.049-.016-.016-.2-.065-.179Zm.2.879v.065l.1-.033-.016-.2Zm.244.9v.065l.065.309.081-.163-.016-.2-.049.081-.049.016-.016-.13Zm.065-5.078c.065-.033.1.1.114.342l.049-.016a2.058,2.058,0,0,0,.391-1.074q.22-.073.342-.537v-.065l-.1-.1-.049.016v.065l.049.179-.033.081-.049.016-.049-.033-.016-.13.049-.081-.065-.179.033-.212-.049.016a3.978,3.978,0,0,0-.619,1.709m.342.26-.081.228.049-.016.081-.228Zm1.563-.13v.065l.163.472.049-.016-.016-.26c-.065.033-.114-.065-.147-.277Zm2.751,2.832-.1.651.049-.1.049-.016.016.326.1-.033-.049-.846Zm.684-4.916.049.049.049-.016.033-.277Zm.26,3.679.1-.033.016.26-.1-.1Zm.114-.439.049-.016.1.293-.033.081-.049.016-.016-.13c-.081.033-.13.016-.147-.065Zm-.163-4.265v.13l.13-.049-.016-.326Zm2,3.89.016.26.1-.033v-.065l-.065-.179Z" transform="translate(-398.019 -166.776)"/>
    <path id="Path_148" data-name="Path 148" class="cls-4" d="M551.281,301.712l.9-.358c.065-.016.1.033.1.163l.049-.016c-.016-.13.016-.212.081-.228l1.79-.7.1.1.049.716a16.8,16.8,0,0,0,1.546,2.474l-.081.163-.716.277c-.049.016-.1.179-.114.456l-.374.277-.049-.049-.049-.911c-1.2-.277-1.807-.5-1.823-.684l-.081-.635-.049.016.016.2.081.5-.049.016-.667-.065-.016.667c.684.049,1.025.342,1.058.846l-.033.081-.57.228-.049.081-.049-.049-.9.358-.016-1.2-.081-.439.472.016-.016-.26c-.033-.439-.2-.586-.5-.472l-.016-1.123-.016-.26Zm.716,3.906.049.049.049-.016-.065.423-.049.016v.13l.049-.081.049-.016.049.049v.065l-.081.179.9-.358c.1-.033.146.1.163.391l.049-.016-.016-.326-.049-.049.033-.081.57-.228.016.13-.5.391v.065l.1-.033.635-.586a2.306,2.306,0,0,1,1.025.326l.033-.212.1-.033.1,1.5.9-.342.1.1.016.13-.016.472.1-.033.065.977a3.219,3.219,0,0,0,.163,1.009l-.081.293-.586.033-.472.179.342,5.811-.081.163-3.434,1.351-.1-.1-.391-6.576.13-.326v-.065a1,1,0,0,1-.179-.537l-.114-1.888.049-.081-.049-.033-.065-1.172.374-.146a5.7,5.7,0,0,0,.147-.9m-.407,2.1v.065l.049-.016.13-.13v-.065l-.049.016Zm.326,2.132v.065l.13.553.277-.114-.016-.26-.049.081-.1.033-.016-.13.016-.342-.228.163Zm.016-.6v.065l.228-.1v-.065Zm.8.488-.1.033-.016-.2-.179.212c.033.114.1.179.2.179v.13l.228-.228.1.163.651-.456v-.065l-.049-.049v-.065l.081-.163-.016-.26-.049-.033v-.065c-.57.391-.863.667-.846.863m-.456-6.022.1.1v.065l-.1.033Zm.065-2.165.016.326.049-.016-.016-.326Zm.065.391.016.2.081.553.049-.016-.016-.2-.081-.57Zm.472,6.95v.065l.521-.2v-.065Zm.065-4.492.049-.016.732.179.016.13-.618.244c-.1-.016-.147-.13-.163-.342Zm.358,2.653.016.26.049-.016-.016-.26Zm.13.619.016.2.065.244.049-.016v-.065l-.065-.374Zm-.26-6.641v.13a6.675,6.675,0,0,1,.407,1.3l.049-.016v-.13l-.423-1.3Zm.472,1.481v.065l.13.619.049-.016-.016-.13-.13-.553Zm.619,8.562.016.26.049-.016-.016-.26Zm.26,1.172.016.326.049-.016-.016-.326Zm.1-3.972.065.374.049-.016.081-.163-.016-.2-.1-.1-.033.065Zm1.107-7.227.1.1.163,2.6-.1.033-1.432-2.181.049-.081Zm-.749,3.744.049.049.016.326-.081.163q0-.1-.293-.146v-.065c0-.1.1-.212.309-.326m.179,2.93c0,.13-.033.212-.13.244l-.033.212.1.1.1-.033v-.065l-.049-.049v-.065l.1-.033.049.049.1-.033v-.065l-.1.033v-.065l.033-.212-.049-.049Zm.326-.26v.065l.13.537.179-.2c-.016-.293-.114-.439-.309-.407m1.253-.749.049-.016v.065l-.032.081v.065l.1-.033-.049.081.016.2.081-.033v.065l.049-.081.374-.146.293.081v.13l-.618.244v.065l.8-.309c0,.13.081.163.2.114l-.049.081v.065l.179.391.049-.016v-.065l-.163-.391.049-.016c.1-.049.244,0,.439.1l.1-.033v-.13l.1-.033c.033.391.2.521.456.423l.1.1.049-.081.1-.033-.033.081v.065c.13-.033.2.016.2.13l-.049.081a1.2,1.2,0,0,1,.781.228,10.7,10.7,0,0,1-1.091,1.888l-.553,1.156.049.049v.065a1.859,1.859,0,0,0-.1.7l.1-.033a6.446,6.446,0,0,0,1.042-2c-.016-.212.016-.342.081-.358l.016.26.1-.033a2.627,2.627,0,0,0,.586-1.5l-.049-.049.049-.081.049-.016.065.309.049-.081.049-.016a7.276,7.276,0,0,1,1.856,2.8,4.67,4.67,0,0,1,.765,1.367l.016.326-.081.163-3.711,1.449a10.561,10.561,0,0,1-1.351-2.344l-1.481-2.214-.049-.179.081-.163-.049.016.081-.439-.179-.6.049-.016.146.016-.016-.2-.179.065-.016-.2.244-.033-.016-.13-.081-.439-.049.016-.033.277-.1-.1.016-.472.1-.033.016.2.1-.033-.114-.228c-.049-.423-.016-.635.049-.651m-.309-5.941,1.123-.439c2.067-.8,3.386-.6,3.988.586a5.45,5.45,0,0,1,.456,1.888c0,.081-.163.212-.5.391l.016.391-.147.049-.049-.049-.049.016-.033.407.049-.016a.253.253,0,0,0,.179-.277l.1-.033v.13l.049-.081.374-.146a5.777,5.777,0,0,1-.977,2.865,2.787,2.787,0,0,1-.863.928q-.049-.146-.83-.342l-.049.081c0-.13-.114-.228-.309-.277l-.049.016c.016.13-.016.212-.081.228a.445.445,0,0,0-.5-.472l-.244-.1v-.065c0-.081.293-.326.879-.749a1.088,1.088,0,0,1,.163-.456v-.065c-.065.016-.1-.049-.114-.228l-.732.553-.049-.049v-.065l.277-.846c-.081.033-.13-.146-.179-.537l-.472-.553a2.818,2.818,0,0,0-1.042.212l-.2.081-.1-.1.033-.212-.065-.309-.13-2.214Zm1.888,11.394.065.244.228-.228-.114-.277.049-.081v-.065l-.065-.179.049-.081-.049.016-.13.244c-.065.016-.081.163-.065.423Zm-.277-8.757v.065l.179-.081v-.065Zm.553-.228v.065l.244-.1v-.065Zm.488,6.413v.065l.049.179.049-.016v-.065l-.065-.179Zm-.13-2.946v.065l.228-.1v-.065Zm.342-1.53.049.049v.065l-.033.081v.065l.1-.033a.972.972,0,0,0,.6-1.107l-.1.033a.821.821,0,0,0-.619.846m.651,1.139v.065l.423-.163v-.065Zm.26-1.9c.1-.033.146.033.163.212l.049-.016.065-.553-.146-.081c-.065.016-.1.163-.13.44m-.13-3.809.049.049.049-.016-.016-.2Zm.391,3.3v.065l.146.016-.016-.13Zm.374-.277.016.2c.065-.016.1.049.114.212l.049-.016-.016-.179-.065-.244Zm1.546,7.943.016.26.033-.016-.016-.26Zm.13.619.016.326.049-.016-.016-.326Zm.065.374.016.26.049-.016-.016-.26Z" transform="translate(-448.923 -149.569)"/>
    <path id="Path_149" data-name="Path 149" d="M402.246,184.4A2.263,2.263,0,1,1,400,186.662a2.227,2.227,0,0,1,2.246-2.262Zm-.016.342a1.915,1.915,0,0,0,.016,3.825,1.836,1.836,0,0,0,1.807-1.9,1.864,1.864,0,0,0-1.823-1.921Zm-.423,3.223H401.4v-2.523a4.144,4.144,0,0,1,.716-.065,1.3,1.3,0,0,1,.781.2.61.61,0,0,1,.228.521.648.648,0,0,1-.488.619v.016c.228.033.374.244.423.619a1.907,1.907,0,0,0,.163.619H402.8a1.757,1.757,0,0,1-.163-.635.471.471,0,0,0-.537-.439h-.277v1.074Zm0-1.4h.293c.326,0,.619-.114.619-.439,0-.228-.163-.439-.619-.439-.13,0-.228.016-.293.016Z" transform="translate(-322.333 -52.913)"/>
  </g>
</svg>
