<svg xmlns="http://www.w3.org/2000/svg" width="147.337" height="45.755" viewBox="0 0 147.337 45.755">
  <defs>
    <style>
      .cls-1 {
        fill: #1a1818;
      }

      .cls-1, .cls-2 {
        fill-rule: evenodd;
      }

      .cls-2 {
        fill: #e50019;
      }
    </style>
  </defs>
  <g id="Group_20" data-name="Group 20" transform="translate(1758 -409)">
    <g id="Group_19" data-name="Group 19" transform="translate(-1758 409)">
      <path id="Path_150" data-name="Path 150" class="cls-1" d="M2710.533,513.968l11.738-24.9h20.875c2.971-.166,9.007,1.07,2.953,11.2h-8.9l2.03-4.282h-11.185l-8.545,17.977Z" transform="translate(-2643.018 -480.69)"/>
      <path id="Path_151" data-name="Path 151" class="cls-1" d="M3656.2,189.285h8.029L3642.62,235.04h-8.177l21.761-45.755Z" transform="translate(-3541.143 -189.285)"/>
      <path id="Path_152" data-name="Path 152" class="cls-2" d="M4085.129,1470.991l-4.669,9.985h-27.372l4.577-9.985Z" transform="translate(-3948.104 -1435.221)"/>
      <path id="Path_153" data-name="Path 153" class="cls-2" d="M386.146,1470.991l-5,9.985H291.3l4.669-9.985Z" transform="translate(-291.295 -1435.221)"/>
      <path id="Path_154" data-name="Path 154" class="cls-1" d="M1724.192,489.253s-11.573-.018-12.089,0a13.717,13.717,0,0,0-11.222,6.977l-4.3,9.229c-3.913,8.9,4.818,8.656,4.818,8.656h12c8.472-.664,10.853-6.4,10.853-6.4l4.928-10.465C1733.494,488.921,1724.192,489.253,1724.192,489.253Zm-8.453,17.756h-11.812l5.131-10.926h11.831Z" transform="translate(-1656.381 -480.874)"/>
      <path id="Path_155" data-name="Path 155" class="cls-1" d="M4339.061,485.592l-19.676-.018-3.267,6.94h18.623l-.737,1.55h-10.465c-8.417-.3-12.5,8.269-12.5,8.269-4.189,8.029,2.658,8.343,3.451,8.269h21.227l8.324-17.793C4346.9,486.626,4341.792,485.5,4339.061,485.592Zm-9.358,17.442H4318.85l.794-1.643h10.889Z" transform="translate(-4197.551 -477.305)"/>
      <path id="Path_156" data-name="Path 156" class="cls-1" d="M533.814,489.539H512.625L500.942,514.4h19.528a13.707,13.707,0,0,0,10.742-4.946s4.928-6.645-1.513-7.549c0,0,6.036-1.458,8.158-6.294C537.856,495.611,541.086,489.76,533.814,489.539Zm-11.646,17.756H511.776l.738-1.569h10.447Zm4.467-9.3H516.1l.738-1.569h10.557Z" transform="translate(-495.091 -481.16)"/>
    </g>
  </g>
</svg>
