<svg xmlns="http://www.w3.org/2000/svg" width="173.702" height="45.755" viewBox="0 0 173.702 45.755">
  <defs>
    <style>
      .cls-1 {
        fill: #e50012;
      }

      .cls-2 {
        fill: #231815;
      }
    </style>
  </defs>
  <g id="brian-crower-inc-vector-logo" transform="translate(131.9 -196.4)">
    <path id="Path_157" data-name="Path 157" class="cls-1" d="M-78.765,199.149V196.4A22.6,22.6,0,0,0-101.223,219a26.789,26.789,0,0,0,.2,3.039,10.007,10.007,0,0,0-.984-1.273,11.385,11.385,0,0,0-3.068-2.431,10.731,10.731,0,0,0-3.7-1.216v-.116a10.078,10.078,0,0,0,4.4-3.7,10.441,10.441,0,0,0,1.418-5.614,10.709,10.709,0,0,0-1.592-5.817,11.149,11.149,0,0,0-4.283-3.994,12.539,12.539,0,0,0-5.991-1.418h-12.1a5.181,5.181,0,0,0-3.589,1.273,4.536,4.536,0,0,0-1.389,3.531v35.626a4.539,4.539,0,0,0,1.418,3.531,5.11,5.11,0,0,0,3.618,1.331H-113.9c4.4,0,7.93-1.215,10.592-3.618,2.6-2.373,3.936-5.672,3.994-9.927a22.579,22.579,0,0,0,20.49,13.428v-2.807a19.874,19.874,0,0,1-19.709-19.853,19.9,19.9,0,0,1,19.766-19.824m-43.643,5.759h4.949a5.591,5.591,0,0,1,3.675,1.158,4.033,4.033,0,0,1,1.447,3.3,4.841,4.841,0,0,1-1.389,3.647,5.129,5.129,0,0,1-3.733,1.331h-4.949Zm11.75,26.944a6.214,6.214,0,0,1-4.283,1.476h-7.467V222.852h6.685a7.946,7.946,0,0,1,5.007,1.331,4.423,4.423,0,0,1,1.707,3.647,5.07,5.07,0,0,1-1.65,4.023"/>
    <path id="Path_158" data-name="Path 158" class="cls-2" d="M123.762,312.8c-.55-1.216-1.418-1.187-1.418-1.187a3.24,3.24,0,0,0-2.431.9,11.337,11.337,0,0,1-2.171,1.679l-.174-.029c.26-.608.752-1.476,1.013-2s1.071-2.257-.521-2.257-4.283,2.634-5.614,3.762-1.91.2-1.823-.434c.116-.666-.145-1.187-.55-1.187s-.608-.087-2.72,1.273c-2.113,1.331-2.431,1.273-2.431,1.273a8.645,8.645,0,0,1,2.6-2.2,34.586,34.586,0,0,0,3.444-2.634c-.752-2.026-7.033,2.894-7.033,2.894-4.11,3.7-4.225.752-4.486-.145a1.193,1.193,0,0,0-1.389-1.042c-.724,0-1.592.955-2.923,2a8.625,8.625,0,0,1-2.431,1.389,4.468,4.468,0,0,1,.405-.9,2.746,2.746,0,0,0-2.171-4.081,3.038,3.038,0,0,0-2.142.926l.232.463a18.263,18.263,0,0,1-2.865,2.4c-.405-2.026-6.57-2.286-7.235-3.3a29.959,29.959,0,0,1,3.328-1.65c2.084-.9,4.862-1.881,4.862-3.675s-5.643-3.155-11.952-.984a1.413,1.413,0,0,1-.579.521c-.405.174-.058.463-.058.463l.347.174s2.055-.347,2.981-.405l.232.145a4.916,4.916,0,0,1-.666.839,2.285,2.285,0,0,0-.9,1.563c-.145.926-.376,2.547-.376,2.547l-1.1.376-.376.405.174.434,1.3.492-.289,4.283a7.221,7.221,0,0,0-1.765,1.013s.289.521.752.521a1.971,1.971,0,0,0,.868-.232l.2.058.116.405.376.2h.579l.463-.81a29.964,29.964,0,0,0,7.235-1.65c2.576-.116,4.254-3.473,5.73-3.473,1.5,0,.666,2.142.492,2.518s-1.331,2.228.087,2.228,2.518-.781,3.965-1.852c1.476-1.071,1.881-.9,2.113-.9s.955,2.142,2.518,2.142a6.988,6.988,0,0,0,3.27-1.216s-1.273,1.939.405,1.939,5.151-2.778,5.151-2.778c.926,3.473,3.791,1.331,4.8.405a7.788,7.788,0,0,1,2.518-1.592c.232,0,.26.116.26.116s-1.968,3.907-.81,3.907,2.373-1.1,3.27-1.736a24.515,24.515,0,0,1,2.576-1.534c.752,0,1.331,2.026,2.778,2.026s2.431-1.708,2.431-1.708l.058-.55c-2,1.273-2.547-.55-2.547-.55m-44.945-4.283a11.488,11.488,0,0,1,1.216-3.791c.521-.174,4.312-.058,4.312,1.071s-3.791,2.489-4.833,2.894c-.984.405-.695-.174-.695-.174m-1.013,7-.174-.145c.2-1.273.752-3.56.752-3.56a.254.254,0,0,1,.318.029c.984.724,4.659,1.071,4.659,1.794.029.724-5.557,1.881-5.557,1.881" transform="translate(-146.382 -75.709)"/>
    <path id="Path_159" data-name="Path 159" class="cls-2" d="M158.483,313.487s-1.765-.492-3.183,1.736c0,0,.174,1.708,2.6.347,0,.029,1.476-1.968.579-2.084" transform="translate(-204.082 -83.168)"/>
    <path id="Path_160" data-name="Path 160" class="cls-2" d="M429.01,328.1l-.521-.289a4.716,4.716,0,0,1-2.084.955,5.959,5.959,0,0,0,.781-2.663,2.655,2.655,0,0,0-4.63-1.389l.145.289s-4.573,5.325-6.338,2.286c0,0,3.183-2.171,3.183-3.531,0-1.389-1.418-1.187-1.418-1.187a4.977,4.977,0,0,0-3.878,4.254s-.781.405-.868.637-.029.116-.029.116a1.174,1.174,0,0,0,.347.839l.521-.2a4.341,4.341,0,0,0,3.068,1.621c1.794,0,6.135-3.936,6.8-3.965,0,0,1.418-.087.637,2.257-.781,2.315-1.389,2.518.463,2.518s4.052-2,4.052-2Zm-12.3-3.126c.463-.521.926-.637.926-.289,0,.376-1.331,1.244-1.331,1.244a1.309,1.309,0,0,1,.405-.955" transform="translate(-387.44 -89.652)"/>
    <path id="Path_161" data-name="Path 161" class="cls-2" d="M304.809,310.313s-2.228,4.2-3.1,4.2.347-4.167.347-4.167.087-3.1-4.515,3.762a7.779,7.779,0,0,1-.289-3.039c.174-1.707-1.042-1.418-2.142,0a9.571,9.571,0,0,1-3.444,2.778,3.044,3.044,0,0,0,.752-1.881c0-2.518-3.386-1.331-3.386-1.331l-.116-.087.289-.434c.058-.347-1.187-.174-1.187-.174a49.136,49.136,0,0,1-7.554,4.833c2.142-3.5-.781-5.007-1.794-5.007a3.959,3.959,0,0,0-2.113.984l.174.463a29.1,29.1,0,0,1-2.836,2.547,11.574,11.574,0,0,1-5.528,1.91c-7.062,0-2.286-11.055,1.765-11.055s1.36,2.171,1.36,2.171c-.839,1.216-.926,4.138-.926,4.138,2.142,1.158,4.688-3.907,3.444-6.656s-9.7-.781-11.692,4.6,1.707,8.074,5.383,8.074a12.212,12.212,0,0,0,6.425-2.344c1.765-1.042,3.328-2.72,4.052-2.72,1.042,0,1.158.984.55,2.2a8.511,8.511,0,0,0-.781,2.257c.724.608,1.794.2,3.5-.781s3.126-1.707,3.126-1.707c-.81,1.447.2,2.663,2,2.663a7.4,7.4,0,0,0,3.415-1.216c.26.405,1.3.868,5.007-2.286,0,0,.434,3.328,1.071,4.081,0,0,1.1.521,2.2-1.592,1.071-2.113,1.331-1.794,1.331-1.794s-.26,2.865.984,2.865,4.37-2.691,5.586-7.582c-.029.029-1.187-.9-1.36,1.331m-17.1,4.891c-2.257.521-.289-2.228-.289-2.228a11.9,11.9,0,0,0,1.534-1.042c2.807-.116,1.013,2.749-1.244,3.27" transform="translate(-279.735 -75.77)"/>
    <path id="Path_162" data-name="Path 162" class="cls-1" d="M-3.306,230.607a14.425,14.425,0,0,1,13.892-14.412V213.3a17.315,17.315,0,0,0,0,34.613v-2.894A14.425,14.425,0,0,1-3.306,230.607" transform="translate(-89.322 -12.009)"/>
    <path id="Path_163" data-name="Path 163" class="cls-1" d="M17.234,245.458a8.632,8.632,0,0,1,8.132-8.624V234.2a11.269,11.269,0,0,0,0,22.516v-2.634a8.652,8.652,0,0,1-8.132-8.624" transform="translate(-104.102 -26.86)"/>
  </g>
</svg>
