<svg xmlns="http://www.w3.org/2000/svg" width="171.661" height="51.498" viewBox="0 0 171.661 51.498">
  <defs>
    <style>
      .cls-1 {
        fill: #f6780d;
      }

      .cls-1, .cls-2 {
        fill-rule: evenodd;
      }

      .cls-2 {
        fill: #ffe100;
      }
    </style>
  </defs>
  <g id="Group_21" data-name="Group 21" transform="translate(-35.452 -37)">
    <path id="Path_164" data-name="Path 164" class="cls-1" d="M207.112,57.472l-5.488-.657a53.278,53.278,0,0,0-6.562-.363,12.346,12.346,0,0,0-4.48.844,4.5,4.5,0,0,0-1.774,1.405s-.149-1.918-3.764-1.906l-33.062.11c-.1-.009-.194-.016-.291-.024.839-2.147,2.4-6.135,3.769-9.58,1.945-4.9-1.79-5.513-4.3-5.5-2.174.014-16.059.025-16.059.025a2.754,2.754,0,0,1,.472.187,51.286,51.286,0,0,0-6.492-.463,23.026,23.026,0,0,0-3.585.288l-47.525.04a2.978,2.978,0,0,0-1.27.239c.713-2.459-1.473-5.029-4.3-5.1-3.675-.087-19.01.066-21.054.066A6.619,6.619,0,0,0,46,40.724c-.916,1.948-8.156,18.436-9.982,22.34s1.091,6.449,3.883,6.449l26.831.011s-4.311,9.468-5.9,13.019S62.8,88.5,64.625,88.5s35.238-.04,36.662-.04c3.155,0,4.522-1.231,5.5-3.425.688-1.547,2.964-7,5.127-12.215l18.32-.06a49.978,49.978,0,0,0,5.612.469A43.92,43.92,0,0,0,141,72.941l39.4-.131s2.7,0,7.854.011c1.594.176,4,.221,6.083.214,3.041-.01,6.537-.235,8.433-2.8a7.28,7.28,0,0,0,1.265-3.639l0-.071s-.01-.159-.012-.19C204.139,66.023,207.112,57.472,207.112,57.472Z"/>
    <path id="Path_165" data-name="Path 165" d="M212.783,65.27l-1.8-.236a56.38,56.38,0,0,0-6.855-.4h-.011a19.556,19.556,0,0,0-4.259.338,5.892,5.892,0,0,0-3.708,2.782,3.02,3.02,0,0,0-.823-1.79,4.438,4.438,0,0,0-3.222-1.034l-10.72,0v0l-12.994,0h-.01l-.028,0-14.6,0-.066.186-.641-.084a56.215,56.215,0,0,0-6.851-.4,19.565,19.565,0,0,0-4.272.338,6.083,6.083,0,0,0-4.575,5.782c0,.05,0,.1,0,.149a3.056,3.056,0,0,0,.367,1.46,1.463,1.463,0,0,0-.335.056c-.021.006-.043.011-.063.018a1.455,1.455,0,0,0-.351.173c-.021.014-.04.028-.059.043a1.514,1.514,0,0,0-.208.189l.326-7.91-11.056,0-.439.6L120.107,72.9l1.579-3.691.019-.053a3.048,3.048,0,0,0-.442-2.739,4.954,4.954,0,0,0-4.14-1.889h-.08l-36.376,0,.53-1.239,12.538-.017.8-1.989a3.1,3.1,0,0,0,.489.668c1.371,1.425,3.994,1.615,6.38,1.611,4.493-.006,8.337-.3,9.873-3.89l1.4-3.287,2.457,0L112.4,63.252l8.864-.013L124,56.374l2.5,0a10.746,10.746,0,0,0-.635,2.672A3.723,3.723,0,0,0,126.809,62c1.222,1.27,3.31,1.527,6.07,1.524a42.231,42.231,0,0,0,6.609-.546l.036-.008-.1.246,8.745-.012,1.492-3.663h.644L148.81,63.2l8.744-.012,4.135-10.108a2.089,2.089,0,0,0-.118-2.092,2.322,2.322,0,0,0-2.057-.914l-4.349.006h-.995s-1.092,2.686-1.514,3.721h-.642l1.516-3.721-7.753.011a1.478,1.478,0,0,0-.38.055c-.03.008-.059.017-.088.027a1.475,1.475,0,0,0-.331.152l-.016.008a1.489,1.489,0,0,0-.282.25l-.014.017-1.217-.2a42.657,42.657,0,0,0-6.929-.6c-1.971,0-4.8.184-6.82,1.667l.562-1.36-2.177,0-12.742.018h0l-2.2,0-6.619.009h0l-8.6.012-2.865,6.735-4.472.006,2.671-6.736-2.143,0-5.675.008a1.483,1.483,0,0,0-.383.056c-.03.008-.058.017-.087.027a1.469,1.469,0,0,0-.345.161h0a1.455,1.455,0,0,0-.285.255c-.02.022-.039.045-.058.069a1.4,1.4,0,0,0-.2.334s-.006.008-.008.013L81.7,57.068l-3.129.008.267-.581c.113-.246,2.774-6.043,3.166-6.988a3.891,3.891,0,0,0,.341-1.478,2.255,2.255,0,0,0-.388-1.3,2.822,2.822,0,0,0-2.4-1.063c-.852-.009-18.334,0-19.077,0a4.392,4.392,0,0,0-4.463,2.514l-.028.051-10.2,22.378-.027.079A2.608,2.608,0,0,0,48.29,74.24l29.478.008S70.907,89.48,70.8,89.727a2.592,2.592,0,0,0-.213,1.014,2.283,2.283,0,0,0,.4,1.3,2.692,2.692,0,0,0,2.342,1.11l10.822-.009v0l13.893-.021.007-.017,1.855.015c1.318.01,7.771.059,9.047,0a3.065,3.065,0,0,0,3.232-1.687l5.765-13.479,7.677,0,1.077-1.479h1.848l-.062,1.48,7.988,0,.009-.228.216.034a45.4,45.4,0,0,0,7.251.488c3.067,0,5.539-.166,7.137-2.269a6.555,6.555,0,0,0,1.156-3.186c0-.072,0-.142,0-.212a3.718,3.718,0,0,0-.273-1.431h2.9l-2.316,6.8,8.192,0,2.316-6.8h2.142l-2.3,6.8,15.157,0v0l6.794,0,.551-1.63,1.054,1.63,9.576,0a49.97,49.97,0,0,0,5.843.295c3.068,0,5.541-.165,7.138-2.27a6.58,6.58,0,0,0,1.153-3.181c0-.072,0-.143,0-.213a3.719,3.719,0,0,0-.307-1.524l.725.077Zm-77.41-8.283a6.487,6.487,0,0,1,3.287-.547,25.59,25.59,0,0,1,3,.187l.437.049-.122.3-2.716.384a21.67,21.67,0,0,1-3.059.3,8.005,8.005,0,0,1-1.251-.071A1.3,1.3,0,0,1,135.373,56.987Zm59.936,15.434-.064.018a1.507,1.507,0,0,0-.351.173c-.02.014-.039.029-.059.043a1.442,1.442,0,0,0-.285.274c-.01.012-.017.027-.026.04a1.4,1.4,0,0,0-.193.37.052.052,0,0,0-.007.013l-.536,1.631-1.133-1.467a4.773,4.773,0,0,0,2.684-2,3.083,3.083,0,0,0,.305.844A1.456,1.456,0,0,0,195.308,72.421Z" transform="translate(-7.727 -6.598)"/>
    <path id="Path_166" data-name="Path 166" class="cls-2" d="M72.624,64.592c-.636-.016-1.168-1.057-.814-2.011a2.126,2.126,0,0,1,1.927-1.118c1.047.026,9.177.013,9.177.013s2.755-6,3.139-6.927c.487-1.174.085-1.372-.765-1.381s-19.055,0-19.055,0c-1.669,0-2.225.415-2.841,1.557L53.247,76.973a.821.821,0,0,0,.787,1.19l27,.013L86.853,64.57S73.26,64.607,72.624,64.592Z" transform="translate(-13.5 -12.31)"/>
    <path id="Path_167" data-name="Path 167" class="cls-2" d="M205.549,134.551c.233-.659-.247-2.144-2.928-2.259l-36.88,0-2.73,6.142,3.157-.028s-7.966,17.679-8.093,17.977c-.2.481.008.943.842.947s9.621-.008,9.621-.008l8.32-18.272a2.412,2.412,0,0,1,2.091-1.539,1.049,1.049,0,0,1,1,1.534l-8.321,18.272,10.781-.017,7.894-18.148a2.411,2.411,0,0,1,2.09-1.539,1.05,1.05,0,0,1,1,1.534L185.5,157.3s8.063.065,9.011,0c1.345.1,1.552-.566,1.552-.566Z" transform="translate(-93.332 -72.573)"/>
    <path id="Path_168" data-name="Path 168" class="cls-2" d="M365.525,135.041h-.034l-2.74,3.656h2.621l.152-3.657m-3.617-2.576,8.775,0-.42,10.158h-5.051l.061-1.48H361.14l-1.077,1.479h-5.61Z" transform="translate(-242.946 -72.704)"/>
    <path id="Path_169" data-name="Path 169" class="cls-2" d="M429.45,138.949a52.569,52.569,0,0,0,5.594.328c.54,0,1.688,0,1.718-.669.02-.5-.27-.6-3.2-.6-1.511,0-3.147-.442-3.082-2.034a4.642,4.642,0,0,1,3.464-4.452,18.559,18.559,0,0,1,3.916-.3,54.71,54.71,0,0,1,6.655.385l-1.164,3.141a44.312,44.312,0,0,0-4.757-.312c-1.953,0-2.419.24-2.44.725-.018.412.3.525,2.878.526,1.872,0,3.509.073,3.421,2.208a5.19,5.19,0,0,1-.869,2.389c-1.08,1.422-2.727,1.691-5.957,1.69a44.3,44.3,0,0,1-7.017-.47l.844-2.56" transform="translate(-299.419 -71.762)"/>
    <path id="Path_170" data-name="Path 170" class="cls-2" d="M501.811,135.827H498.5l1.189-3.359,11.709,0-1.187,3.359h-3.3l-2.315,6.8h-5.1l2.316-6.8" transform="translate(-352.647 -72.706)"/>
    <path id="Path_171" data-name="Path 171" class="cls-2" d="M549.518,132.468l12.087,0-1.1,3.217-6.984,0-.376,1.137,6.986,0-.744,2.191-6.989,0-.316.911,6.987,0-.916,2.7-12.068,0,3.437-10.157" transform="translate(-388.886 -72.707)"/>
    <path id="Path_172" data-name="Path 172" class="cls-2" d="M611.074,137.428h2.248a1.524,1.524,0,0,0,1.7-1.395c.023-.485-.363-.711-1.052-.711h-2.184l-.709,2.105m-3.238-4.953,9.676,0c2.229,0,2.67.826,2.612,2.265a3.6,3.6,0,0,1-3.91,3.725h-.887l3.222,4.169-5.855,0-2.281-3.528-1.194,3.527-5,0Z" transform="translate(-433.164 -72.712)"/>
    <path id="Path_173" data-name="Path 173" class="cls-2" d="M672.462,138.964a52.657,52.657,0,0,0,5.6.328c.541,0,1.688,0,1.719-.669.019-.5-.272-.6-3.206-.6-1.509,0-3.151-.442-3.083-2.035a4.641,4.641,0,0,1,3.465-4.452,18.61,18.61,0,0,1,3.914-.3,54.847,54.847,0,0,1,6.66.385l-1.165,3.141a44.418,44.418,0,0,0-4.758-.312c-1.952,0-2.422.24-2.441.725-.016.411.3.525,2.88.526,1.872,0,3.507.072,3.42,2.208a5.233,5.233,0,0,1-.866,2.388c-1.079,1.422-2.732,1.691-5.959,1.69a44.354,44.354,0,0,1-7.015-.469l.841-2.56" transform="translate(-484.495 -71.774)"/>
    <path id="Path_174" data-name="Path 174" class="cls-2" d="M199.612,70.561l5.674-.008-2.671,6.736,5.7-.008L206.9,80.8l-11.358.016,4.068-10.258" transform="translate(-121.924 -25.553)"/>
    <path id="Path_175" data-name="Path 175" class="cls-2" d="M269.663,77.983c-1.107,2.584-3.817,3-8.522,3.011-2.151,0-5.907-.133-5.753-2.417a5.428,5.428,0,0,1,.576-1.825l2.682-6.306,5.75-.008-2.568,6.049a4.934,4.934,0,0,0-.391,1.163c-.037.532.429.746,1.124.745a1.719,1.719,0,0,0,1.788-1.165l2.9-6.8,5.641-.008-3.224,7.557" transform="translate(-167.496 -25.457)"/>
    <path id="Path_176" data-name="Path 176" class="cls-2" d="M334.289,73.749l-3.708.005,1.4-3.392,13.119-.019-1.4,3.392L340,73.741l-2.736,6.866-5.714.008,2.734-6.866" transform="translate(-224.765 -25.394)"/>
    <path id="Path_177" data-name="Path 177" class="cls-2" d="M400.149,79.379a40.666,40.666,0,0,1-6.355.524c-3.951.006-5.71-.594-5.552-2.961.1-1.494,1.363-5.014,3.148-6.437,1.589-1.237,3.974-1.454,6.05-1.456a41.349,41.349,0,0,1,6.686.578l-1.383,3.389a26.935,26.935,0,0,0-3.167-.2,7.372,7.372,0,0,0-4.152.823,2.668,2.668,0,0,0-1.082,1.941c-.069,1.019.791,1.319,2.776,1.316a32.33,32.33,0,0,0,4.22-.452l-1.189,2.931" transform="translate(-268.671 -24.407)"/>
    <path id="Path_178" data-name="Path 178" class="cls-2" d="M452.29,70.187l5.587-.008L456.361,73.9l3.8,0,1.514-3.721,4.348-.006c.672,0,1.147.236.813,1.039s-3.77,9.216-3.77,9.216l-5.585.008,1.494-3.663-3.8.005-1.493,3.663-5.583.008,4.191-10.258" transform="translate(-314.265 -25.26)"/>
  </g>
</svg>
