<svg xmlns="http://www.w3.org/2000/svg" width="99.435" height="57.571" viewBox="0 0 99.435 57.571">
  <defs>
    <style>
      .cls-1 {
        fill: #c9222f;
      }

      .cls-1, .cls-3 {
        stroke: #000;
        stroke-miterlimit: 2.613;
        stroke-width: 1.027px;
      }

      .cls-1, .cls-2 {
        fill-rule: evenodd;
      }

      .cls-3 {
        fill: none;
      }
    </style>
  </defs>
  <g id="dba" transform="translate(-7.99 -41.41)">
    <path id="Path_180" data-name="Path 180" class="cls-1" d="M40.327,72.145A16.129,16.129,0,0,1,24.416,88.482,16.129,16.129,0,0,1,8.5,72.145,15.939,15.939,0,0,1,24.367,55.98a15.605,15.605,0,0,1,6.662,1.3l.015.044v9.623a8.289,8.289,0,0,0-6.673-3.4,8.647,8.647,0,0,0-.109,17.281,8.654,8.654,0,0,0,8.484-8.683V41.923h7.589Zm1.811.175A15.944,15.944,0,1,0,58.079,56.09,15.519,15.519,0,0,0,49.7,58.551V41.923H42.138V63.7l7.586,7.64a8.588,8.588,0,1,1,.06,2.4L42.138,66.03Zm55.475,4.125A7.158,7.158,0,0,1,90.9,80.68c-5.12,0-8.288-4.14-8.288-8.7a8.115,8.115,0,1,1,16.228,0V88.426H106.9l.008-16.443a16.017,16.017,0,0,0-16.285-16,15.85,15.85,0,0,0-16.088,16A16.327,16.327,0,0,0,90.725,88.448a15.9,15.9,0,0,0,6.887-1.56l0-10.444Z" transform="translate(0 0)"/>
    <path id="Path_181" data-name="Path 181" class="cls-2" d="M10.376,132.089a5.247,5.247,0,0,1,2.745.647,2.789,2.789,0,0,1,1.211,2.33c.013.129.019.223.019.283a3.284,3.284,0,0,1-.179,1.052,2.9,2.9,0,0,1-.6,1,2.964,2.964,0,0,1-1.126.753,4.543,4.543,0,0,1-1.722.29H9.253v-6.352Zm.069,1.142-.017,4.051c.031,0,.076,0,.136.005l.139,0a3.019,3.019,0,0,0,1.79-.476,1.746,1.746,0,0,0,.666-1.524,2.14,2.14,0,0,0-.262-1.067,1.8,1.8,0,0,0-.811-.734,3.121,3.121,0,0,0-1.367-.268q-.137,0-.274.01Zm4.807-1.142h1.175v6.351H15.252Zm2.163,1.692a1.759,1.759,0,0,1,.251-.934,1.786,1.786,0,0,1,.684-.646,1.973,1.973,0,0,1,.944-.231A2.275,2.275,0,0,1,20,132.1a1.713,1.713,0,0,1,.747.538,1.954,1.954,0,0,1,.411,1.138H19.945a.777.777,0,0,0-.239-.487.666.666,0,0,0-.446-.165.656.656,0,0,0-.477.19.708.708,0,0,0-.193.531c.024.218.2.4.521.552s.646.291.967.423a2.4,2.4,0,0,1,.839.575,1.6,1.6,0,0,1,.385,1.076,2.151,2.151,0,0,1-.293,1.159,1.884,1.884,0,0,1-.76.707,2.392,2.392,0,0,1-.988.256,2.132,2.132,0,0,1-1.033-.256,1.994,1.994,0,0,1-.748-.7,1.949,1.949,0,0,1-.3-.978h1.237a.858.858,0,0,0,.254.581.812.812,0,0,0,.517.209,1.144,1.144,0,0,0,.562-.176.812.812,0,0,0,.348-.4,1.16,1.16,0,0,0,.069-.335.5.5,0,0,0-.217-.477q-.217-.119-.977-.432a3.3,3.3,0,0,1-1.137-.708,1.747,1.747,0,0,1-.424-1.146Zm4.359,1.372a2.865,2.865,0,0,1,.215-1.027,3.63,3.63,0,0,1,.637-1.05,3.263,3.263,0,0,1,1.038-.8,3.053,3.053,0,0,1,1.379-.307,3.4,3.4,0,0,1,1.195.237,3.535,3.535,0,0,1,1.124.679,2.351,2.351,0,0,1,.687,1.015H26.717a2.207,2.207,0,0,0-1.656-.79,1.983,1.983,0,0,0-1.047.3,2.278,2.278,0,0,0-.787.8,2.019,2.019,0,0,0-.293,1.049,2.218,2.218,0,0,0,.173.883,2.11,2.11,0,0,0,.478.7,2.219,2.219,0,0,0,.687.453,2.04,2.04,0,0,0,2.368-.576h1.375a2.805,2.805,0,0,1-.584.874,3.1,3.1,0,0,1-.8.589,3.576,3.576,0,0,1-.874.32,3.79,3.79,0,0,1-.833.1,3.515,3.515,0,0,1-1.563-.483,3.1,3.1,0,0,1-1.13-1.18A3.85,3.85,0,0,1,21.774,135.153Zm9.417-3.063H32.8a2.663,2.663,0,0,1,1.172.234,1.658,1.658,0,0,1,.71.6,1.4,1.4,0,0,1,.23.758,1.678,1.678,0,0,1-.173.827,1.16,1.16,0,0,1-.5.469,1.663,1.663,0,0,1,1.089,1.605,1.681,1.681,0,0,1-.257.864,1.954,1.954,0,0,1-.787.715,2.693,2.693,0,0,1-1.291.285h-1.81v-6.352Zm1.174,1.142v1.3H32.7a2.644,2.644,0,0,0,.552-.047.574.574,0,0,0,.335-.2.734.734,0,0,0,.12-.457c-.034-.4-.347-.6-.938-.6h-.4Zm0,2.446V137.3h.6q1.125,0,1.125-.884a.647.647,0,0,0-.315-.537,1.311,1.311,0,0,0-.741-.2h-.669Zm5.5-3.588c.02,0,.056,0,.1,0s.086-.005.109-.005a3,3,0,0,1,1.182.218,1.772,1.772,0,0,1,.812.682,2.248,2.248,0,0,1,.323,1.151,2.077,2.077,0,0,1-.159.775,1.932,1.932,0,0,1-.532.728,2.137,2.137,0,0,1-.957.463l1.725,2.344H39.018l-1.657-2.464v2.464H36.17V132.09h1.7Zm-.524,1.142V135.1H38.1c.749-.022,1.126-.356,1.126-1.007a.716.716,0,0,0-.348-.665,1.956,1.956,0,0,0-.9-.2Zm5.929-1.142h.912l2.678,6.352H45.577l-.688-1.64H42.623l-.7,1.64H40.632Zm.455,1.656-.669,1.915h1.356Zm3.771-1.656h1.175v2.764l1.983-2.764h1.408l-2.4,3.116,2.4,3.236H50.658l-1.983-2.8v2.8H47.5Zm5.312,0h3.423v1.142H53.987V134.7h2.145v1.141H53.987V137.3h2.232v1.142H52.812Zm4.23,1.692a1.755,1.755,0,0,1,.936-1.579,1.967,1.967,0,0,1,.943-.231,2.291,2.291,0,0,1,.706.134,1.724,1.724,0,0,1,.747.538,1.977,1.977,0,0,1,.411,1.138H59.572a.765.765,0,0,0-.239-.487.692.692,0,0,0-.925.025.71.71,0,0,0-.192.531c.024.218.2.4.521.552s.645.291.966.423a2.408,2.408,0,0,1,.839.575,1.61,1.61,0,0,1,.385,1.076,2.151,2.151,0,0,1-.293,1.159,1.881,1.881,0,0,1-.76.707,2.394,2.394,0,0,1-.988.256,2.126,2.126,0,0,1-1.033-.256,2,2,0,0,1-.749-.7,1.955,1.955,0,0,1-.3-.978h1.236a.858.858,0,0,0,.254.581.812.812,0,0,0,.518.209,1.144,1.144,0,0,0,.561-.176.811.811,0,0,0,.349-.4,1.174,1.174,0,0,0,.069-.335.5.5,0,0,0-.217-.477c-.146-.08-.47-.223-.978-.432a3.319,3.319,0,0,1-1.137-.708,1.761,1.761,0,0,1-.422-1.146Zm9.216-1.692h.911l2.678,6.352H68.56l-.688-1.64H65.605l-.7,1.64H63.614l2.643-6.352Zm.455,1.656-.668,1.915H67.4Zm3.77,2.619v-4.276h1.175v4.276a1.21,1.21,0,0,0,.134.575.971.971,0,0,0,.353.383.886.886,0,0,0,.466.132,1.019,1.019,0,0,0,.478-.117.914.914,0,0,0,.365-.353,1.111,1.111,0,0,0,.137-.57v-4.326h1.183v4.292a2.294,2.294,0,0,1-.265,1.066,2.171,2.171,0,0,1-.756.83,2.017,2.017,0,0,1-1.125.319,2.156,2.156,0,0,1-1.074-.3,2.128,2.128,0,0,1-.782-.8,2.23,2.23,0,0,1-.291-1.135Zm5.271-2.584a1.751,1.751,0,0,1,.936-1.579,1.966,1.966,0,0,1,.943-.231,2.279,2.279,0,0,1,.7.134,1.718,1.718,0,0,1,.747.538,1.961,1.961,0,0,1,.41,1.138H78.285a.772.772,0,0,0-.24-.487.69.69,0,0,0-.924.025.71.71,0,0,0-.193.531c.024.218.2.4.521.552s.646.291.967.423a2.408,2.408,0,0,1,.839.575,1.61,1.61,0,0,1,.385,1.076,2.151,2.151,0,0,1-.293,1.159,1.887,1.887,0,0,1-.76.707,2.4,2.4,0,0,1-.989.256,2.13,2.13,0,0,1-1.033-.256,1.994,1.994,0,0,1-.748-.7,1.939,1.939,0,0,1-.3-.978h1.237a.858.858,0,0,0,.254.581.811.811,0,0,0,.517.209,1.137,1.137,0,0,0,.561-.176.805.805,0,0,0,.349-.4,1.146,1.146,0,0,0,.07-.335.5.5,0,0,0-.217-.477c-.147-.08-.472-.223-.979-.432a3.313,3.313,0,0,1-1.136-.708,1.756,1.756,0,0,1-.423-1.146Zm4.179-.55v-1.142h3.536v1.142H82.277v5.21H81.111l-.018-5.21Zm5.821-1.142c.02,0,.056,0,.1,0s.085-.005.109-.005a3,3,0,0,1,1.182.218,1.768,1.768,0,0,1,.812.682,2.243,2.243,0,0,1,.323,1.151,2.087,2.087,0,0,1-.159.775,1.942,1.942,0,0,1-.531.728,2.134,2.134,0,0,1-.957.463l1.725,2.344H86.9l-1.656-2.464v2.464H84.053V132.09h1.7Zm-.525,1.142V135.1h.755c.75-.022,1.126-.356,1.126-1.007a.715.715,0,0,0-.347-.665,1.96,1.96,0,0,0-.9-.2Zm5.93-1.142h.911l2.676,6.352H93.459l-.687-1.64H90.506l-.7,1.64H88.515l2.643-6.352Zm.455,1.656-.669,1.915H92.3l-.687-1.915Zm3.771-1.656h1.175v5.21h1.948v1.142H95.383Zm3.768,0h1.175v6.351H99.151Zm4.521,0h.911l2.676,6.352h-1.286l-.688-1.64H103.02l-.7,1.64h-1.288l2.643-6.352Zm.454,1.656-.668,1.915h1.356Z" transform="translate(-0.33 -39.617)"/>
    <path id="Path_182" data-name="Path 182" class="cls-3" d="M38.011,91.186a6.317,6.317,0,1,1-6.317-6.317A6.317,6.317,0,0,1,38.011,91.186Z" transform="translate(-7.423 -18.894)"/>
    <path id="Path_183" data-name="Path 183" class="cls-2" d="M34.008,92.994a.238.238,0,1,1-.238-.238A.238.238,0,0,1,34.008,92.994Zm-.584,2.386a.238.238,0,1,1-.238-.226A.238.238,0,0,1,33.423,95.38Zm1.749,1.326a.239.239,0,1,1-.239-.239A.239.239,0,0,1,35.173,96.705Zm1.855-1.3a.238.238,0,1,1-.237-.237.238.238,0,0,1,.237.237ZM36.445,92.994Z" transform="translate(-10.754 -22.364)"/>
    <path id="Path_184" data-name="Path 184" class="cls-3" d="M37.222,91.22a2.943,2.943,0,1,1-2.942-2.943A2.942,2.942,0,0,1,37.222,91.22Zm-1.882,0a1.083,1.083,0,1,1-1.061-1.06A1.06,1.06,0,0,1,35.34,91.22Zm39.116-.034a6.317,6.317,0,1,1-6.316-6.317A6.316,6.316,0,0,1,74.456,91.186Z" transform="translate(-10.045 -18.894)"/>
    <path id="Path_185" data-name="Path 185" class="cls-2" d="M94.4,93a.239.239,0,1,1-.238-.227A.239.239,0,0,1,94.4,93Zm-.584,2.386a.238.238,0,1,1-.238-.238.238.238,0,0,1,.238.238Zm1.748,1.326a.237.237,0,1,1-.237-.239A.237.237,0,0,1,95.566,96.714Zm1.857-1.3a.238.238,0,1,1-.24-.236A.238.238,0,0,1,97.423,95.412ZM96.839,93a.239.239,0,1,1-.237-.216A.239.239,0,0,1,96.839,93Z" transform="translate(-37.325 -22.373)"/>
    <path id="Path_186" data-name="Path 186" class="cls-3" d="M97.615,91.22a2.942,2.942,0,1,1-2.942-2.943,2.942,2.942,0,0,1,2.942,2.943Zm-1.881,0a1.06,1.06,0,1,1-1.059-1.037A1.06,1.06,0,0,1,95.734,91.22Zm37.965-.034a6.317,6.317,0,1,1-6.316-6.317A6.316,6.316,0,0,1,133.7,91.186Z" transform="translate(-36.616 -18.894)"/>
    <path id="Path_187" data-name="Path 187" class="cls-2" d="M152.741,92.994a.238.238,0,1,1-.238-.238A.238.238,0,0,1,152.741,92.994Zm-.584,2.386a.238.238,0,1,1-.238-.238A.239.239,0,0,1,152.157,95.38Zm1.748,1.326a.238.238,0,1,1-.114-.22.237.237,0,0,1,.114.22Zm1.857-1.3a.237.237,0,1,1-.237-.237.238.238,0,0,1,.237.237Zm-.583-2.41a.237.237,0,1,1-.237-.238A.237.237,0,0,1,155.178,92.994Z" transform="translate(-62.991 -22.364)"/>
    <path id="Path_188" data-name="Path 188" class="cls-3" d="M155.954,93.9a2.942,2.942,0,1,1-2.94-2.943A2.942,2.942,0,0,1,155.954,93.9Zm-1.881,0a1.06,1.06,0,1,1-1.06-1.06A1.061,1.061,0,0,1,154.073,93.9Z" transform="translate(-62.283 -21.572)"/>
  </g>
</svg>
